<svg version="1.1" xmlns="http://www.w3.org/2000/svg" style="display: block;" viewBox="0 0 2048 2048" width="1024" height="1024" preserveAspectRatio="none">
<defs>
	<linearGradient id="Gradient1" gradientUnits="userSpaceOnUse" x1="11.3566" y1="1239.49" x2="184.825" y2="1321.12">
		<stop class="stop0" offset="0" stop-opacity="1" stop-color="rgb(244,227,233)"/>
		<stop class="stop1" offset="1" stop-opacity="1" stop-color="rgb(236,235,233)"/>
	</linearGradient>
	<linearGradient id="Gradient2" gradientUnits="userSpaceOnUse" x1="892.844" y1="1253.56" x2="897.013" y2="1300.22">
		<stop class="stop0" offset="0" stop-opacity="1" stop-color="rgb(159,70,67)"/>
		<stop class="stop1" offset="1" stop-opacity="1" stop-color="rgb(188,89,86)"/>
	</linearGradient>
	<linearGradient id="Gradient3" gradientUnits="userSpaceOnUse" x1="1142.06" y1="1210.57" x2="1216.13" y2="1081.35">
		<stop class="stop0" offset="0" stop-opacity="1" stop-color="rgb(63,20,17)"/>
		<stop class="stop1" offset="1" stop-opacity="1" stop-color="rgb(104,27,36)"/>
	</linearGradient>
	<linearGradient id="Gradient4" gradientUnits="userSpaceOnUse" x1="619.729" y1="903.3" x2="579.984" y2="936.736">
		<stop class="stop0" offset="0" stop-opacity="1" stop-color="rgb(122,83,143)"/>
		<stop class="stop1" offset="1" stop-opacity="1" stop-color="rgb(149,107,167)"/>
	</linearGradient>
	<linearGradient id="Gradient5" gradientUnits="userSpaceOnUse" x1="586.071" y1="865.663" x2="560.843" y2="914.364">
		<stop class="stop0" offset="0" stop-opacity="1" stop-color="rgb(105,52,116)"/>
		<stop class="stop1" offset="1" stop-opacity="1" stop-color="rgb(131,83,149)"/>
	</linearGradient>
	<linearGradient id="Gradient6" gradientUnits="userSpaceOnUse" x1="1658.78" y1="1616.2" x2="1528.26" y2="1662">
		<stop class="stop0" offset="0" stop-opacity="1" stop-color="rgb(108,52,115)"/>
		<stop class="stop1" offset="1" stop-opacity="1" stop-color="rgb(132,84,147)"/>
	</linearGradient>
	<linearGradient id="Gradient7" gradientUnits="userSpaceOnUse" x1="341.044" y1="1126.43" x2="561.984" y2="764.582">
		<stop class="stop0" offset="0" stop-opacity="1" stop-color="rgb(181,138,199)"/>
		<stop class="stop1" offset="1" stop-opacity="1" stop-color="rgb(204,167,220)"/>
	</linearGradient>
	<linearGradient id="Gradient8" gradientUnits="userSpaceOnUse" x1="872.222" y1="1530.18" x2="853.884" y2="1569.59">
		<stop class="stop0" offset="0" stop-opacity="1" stop-color="rgb(77,27,91)"/>
		<stop class="stop1" offset="1" stop-opacity="1" stop-color="rgb(106,53,111)"/>
	</linearGradient>
</defs>
<path transform="translate(0,0)" fill="rgb(252,245,242)" d="M 188.472 2008.78 C 159.51 1957.72 244.058 1972.78 221.677 1924.86 C 215.904 1912.5 200.042 1896.73 191.369 1885.02 C 169.765 1857.11 161.57 1834.14 158.97 1799.18 C 153.433 1724.74 206.051 1655.42 243.936 1595.05 C 303.693 1499.83 336.07 1402.36 346.28 1290.38 C 348.422 1266.89 353.472 1241.84 352.046 1217.84 C 350.98 1201.6 355.373 1144.66 348.224 1134.89 L 347.381 1134.85 L 347.526 1136.16 C 348.639 1147.07 346.449 1158.99 336.045 1164.76 C 325.125 1170.83 311.326 1167.73 302.553 1159.31 C 254.314 1097.65 239.166 1013.51 236.581 936.954 C 236.268 926.553 235.084 920.785 234.887 910.772 C 235.513 893.619 237.695 875.09 238.819 858.149 C 245.652 755.19 279.736 655.916 325.746 564.177 C 338.853 535.907 357.111 511.191 372.338 484.229 C 393.639 446.193 415.82 408.125 443.052 373.997 C 449.718 365.643 458.721 352.951 466.223 345.985 C 481.072 332.196 495.388 315.364 510.27 302.02 C 600.617 221.87 709.838 165.977 827.693 139.579 C 911.529 119.929 995.961 113.862 1078.81 141.96 C 1147.3 111.795 1280.21 143.69 1347.12 171.562 C 1435.52 208.383 1521.12 260.151 1589.29 328.159 C 1635.08 373.917 1681.61 444.602 1708.02 503.012 C 1757.48 612.39 1775.11 724.026 1784.97 842.499 C 1790.54 903.416 1792.44 964.613 1790.67 1025.76 C 1790.37 1034.48 1785.97 1045.02 1786.1 1053.17 C 1786.74 1095.87 1784.61 1137.86 1781.06 1180.33 C 1780.54 1186.63 1780.32 1224.33 1781.41 1229.62 C 1787.44 1258.97 1786.53 1286.15 1789.45 1315.22 C 1794.11 1358.45 1802.19 1401.25 1813.62 1443.21 C 1816.47 1453.71 1820.01 1467.75 1823.63 1477.62 C 1833.44 1504.69 1845.2 1531.02 1858.83 1556.38 C 1906.3 1644.38 1980.93 1745.5 1940.17 1852.56 C 1934.86 1866.51 1923.07 1885.21 1912.35 1895.7 C 1905.93 1901.9 1899.03 1907.6 1891.72 1912.73 C 1875.88 1924 1826.87 1952.54 1837.03 1975.01 C 1843.16 1988.57 1867.87 1988.93 1859.93 2017.12 C 1857.71 2024.99 1850.03 2029.05 1843.22 2032.89 C 1833.84 2038.18 1809.17 2031.18 1799.11 2027.66 C 1787.38 2023.57 1772.06 2013.02 1764.46 2002.92 C 1761.56 1999.07 1758.29 1992.65 1754.11 1989.57 C 1747.33 1965.45 1744.47 1949.79 1753.13 1925.53 C 1754.53 1921.6 1759.45 1907.78 1759.93 1904.73 L 1757.19 1900.65 C 1742.61 1917.57 1715.12 1935.81 1715.86 1960.85 C 1715.97 1964.88 1718.85 1970.71 1722.08 1972.77 C 1744.15 1986.86 1744.66 1980.6 1748.88 2007.39 C 1736.98 2046.93 1671.19 2026.28 1642.61 2019.76 C 1632.42 2017.43 1609.16 2005.91 1599.52 1999.28 C 1579.58 1969.49 1581.43 1986.6 1551.17 1991.22 C 1519.37 1996.07 1459.51 1997.61 1430.21 1978.02 C 1427.9 1973.18 1426.4 1968.71 1422.33 1965.42 L 1419.79 1964.7 C 1413.62 1968.73 1415.51 1980.6 1415.7 1987.32 C 1412.49 1994.34 1402.16 2004.78 1394.77 2007.51 C 1334.08 2029.92 1267.93 2018.03 1208.93 1996.28 C 1202.16 1993.78 1141.94 2006.6 1130.07 2003.49 C 1127.07 2002.71 1115.76 2006.67 1111.85 2006.84 C 1096.29 2006.46 1080.98 2008.71 1065.61 2009.58 C 1007.82 2012.75 949.914 2013.62 892.048 2012.18 C 855.031 2011 818.174 2007.15 781.364 2003.36 C 771.521 2002.35 761.678 2003.5 751.791 2002.32 C 728.678 1999.58 705.416 1992.24 682.227 1992.11 C 665.544 1992.01 651.017 1998.16 634.878 2001.36 C 624.485 2003.42 614.493 2003.36 603.956 2003.01 C 580.681 2002.25 557.429 1998.32 535.683 1989.65 C 526.94 1986.16 517.217 1982.29 509.206 1977.36 C 504.925 1974.73 495.673 1966.06 491.008 1966.61 C 488.973 1968.73 489.188 1969.14 487.906 1970.99 C 446.42 2030.82 351.511 2042.8 285.607 2025.89 C 273.574 2022.81 266.053 2016.73 256.961 2009.32 C 240.577 2015.09 215.001 2021.75 198.279 2013.85 C 194.966 2012.25 191.696 2010.56 188.472 2008.78 z"/>
<path transform="translate(0,0)" fill="rgb(6,6,6)" d="M 1757.19 1900.65 L 1768.11 1888.19 C 1765.57 1893.35 1762.62 1899.77 1759.93 1904.73 L 1757.19 1900.65 z"/>
<path transform="translate(0,0)" fill="rgb(59,13,24)" d="M 321.115 992.15 C 313.225 1017.49 316.48 1075.79 319.821 1102.99 C 321.117 1113.53 326.34 1139.77 324.613 1148.39 C 318.869 1148.96 310.719 1135.62 307.736 1131.08 C 287.824 1100.79 277.165 1069.51 269.386 1034.35 C 228.586 849.901 285.988 657.007 385.897 501.105 C 399.719 479.522 411.795 455.398 426.061 433.5 C 522.585 285.331 684.711 188.985 856.159 154.092 C 915.103 142.047 979.173 139.347 1038.56 151.401 C 1048.77 153.472 1065.44 157.965 1074.14 163.637 C 1085.71 160.58 1099.57 156.607 1111.2 154.719 C 1173.5 144.614 1243.49 157.521 1302.81 177.474 C 1372.72 201.157 1438.57 235.463 1498.04 279.187 C 1668.32 405.412 1731.75 567.463 1757.06 772.04 C 1762.34 814.152 1765.88 856.464 1767.65 898.868 C 1768.41 914.312 1769.61 929.787 1769.71 945.249 C 1770.21 1016.57 1763.07 1087.35 1761.18 1158.56 C 1759.2 1233.23 1766.04 1315.88 1780.03 1389.2 C 1791.81 1450.9 1810.6 1511.42 1840.79 1566.75 C 1859.39 1600.85 1880.94 1633.32 1898.14 1668.17 C 1917 1706.39 1931.56 1750.08 1931.17 1793 C 1930.16 1904 1836.98 1897.07 1817.63 1955.44 C 1810.74 1976.22 1817.18 1986.75 1832.42 2000.14 C 1835.67 2002.99 1839.28 2005.94 1841.25 2009.83 L 1840.67 2011.57 C 1833.3 2016.57 1808.31 2009.72 1800.87 2005.65 C 1743.74 1974.14 1774.7 1925.77 1794.49 1883.18 C 1818.61 1831.27 1814.81 1769.09 1796.07 1716.6 C 1797.9 1781.76 1782.47 1837.96 1739.11 1887.82 C 1718.21 1911.84 1695.9 1925.37 1694.61 1960.18 C 1693.54 1988.72 1724.71 1994.58 1727.84 2004.02 C 1722.67 2016.31 1672.02 2005.12 1660.34 2002.7 C 1644.82 1999.48 1626.46 1992.86 1614.39 1982.2 C 1603.37 1972.47 1601.62 1963.23 1600.73 1949.61 C 1593.5 1952.97 1586.34 1957.18 1578.74 1960.71 C 1554.68 1971.84 1532.53 1973.69 1506.39 1973.32 C 1492.86 1973.13 1454.73 1971.8 1445.44 1962.35 C 1444.86 1960.73 1443.94 1959.08 1446.06 1957.81 C 1462.73 1947.87 1470.05 1936.29 1477.41 1918.5 C 1433.69 1942.04 1403.97 1954.36 1353.8 1951.35 C 1366.52 1964.59 1378.78 1967.01 1395.17 1974 C 1398.51 1983.15 1376.04 1992.72 1368.71 1994.29 C 1344.93 1999.39 1307.62 2002.11 1283.99 1995.9 C 1260.08 1989.62 1232.23 1984.54 1211.37 1972.19 C 1200.47 1975.89 1143.56 1982.21 1129.78 1983.39 C 1036.23 1991.2 942.257 1992.66 848.511 1987.77 C 800.296 1984.75 752.171 1980.44 704.186 1974.86 L 703.112 1974.24 C 694.217 1969.22 693.291 1970.88 683.504 1973.42 L 671.631 1969.57 C 670.294 1970.22 668.939 1970.83 667.566 1971.41 C 622.548 1990.65 553.744 1982.99 513.313 1955.3 C 504.967 1949.59 487.364 1931.76 482.023 1929.61 L 480.767 1930.84 C 479.726 1937.76 477.796 1944.52 475.023 1950.94 C 454.795 1997.05 384.588 2012.91 339.552 2011.37 C 327.251 2010.94 278.956 2009.42 274.191 1995.86 C 275.957 1986.6 291.198 1985.84 298.561 1982.22 C 315.327 1974.31 331.403 1960.04 336.834 1941.71 C 345.537 1912.34 318.525 1883.1 305.619 1857.99 C 297.278 1841.59 291.552 1823.98 288.648 1805.8 C 285.588 1787.66 285.022 1772.52 285.81 1754.24 C 286.222 1744.67 291.572 1726.36 289.797 1718.86 L 288.438 1718.37 C 287.378 1719.02 286.443 1719.59 285.553 1720.47 C 274.118 1731.8 263.278 1750 256.208 1764.54 C 211.435 1856.57 301.145 1893.08 296.999 1944.82 C 295.914 1958.36 289.361 1970.16 278.868 1978.67 C 264.718 1990.14 226.899 1999.6 208.92 1996.56 C 206.17 1996.1 204.666 1995.36 203.141 1993.05 C 205.161 1986.27 222.066 1980.48 227.12 1975.52 C 274.857 1928.67 220.476 1893.38 197.738 1856.38 C 182.273 1831.12 175.632 1801.44 178.858 1772 C 185.408 1715.99 241.519 1638.01 272.117 1588.24 C 350.495 1460.76 373.107 1316.12 373.1 1168.6 C 373.099 1162.24 373.433 1132.68 370.958 1128.77 C 343.619 1085.48 329.154 1042.33 321.115 992.15 z"/>
<path transform="translate(0,0)" fill="rgb(152,106,171)" d="M 1097.3 1502.73 C 1104.8 1504.44 1112.29 1506.19 1119.76 1508 C 1123.42 1508.8 1129.49 1509.95 1132.86 1511.09 C 1151.75 1517.11 1174.26 1526.23 1190.88 1536.79 C 1206.81 1547.93 1212.75 1553.93 1225.65 1568.56 C 1206.19 1614.54 1187.06 1656.98 1170.69 1704.19 C 1165.65 1693.42 1154.07 1665.91 1147.14 1658.54 L 1144.87 1657.74 L 1143.11 1658.68 C 1141.11 1666.56 1160.13 1710.37 1164.81 1719.18 C 1149.89 1777.33 1137.48 1832.55 1156.14 1892.19 C 1165.55 1922.25 1181.78 1957.16 1211.37 1972.19 C 1200.47 1975.89 1143.56 1982.21 1129.78 1983.39 C 1036.23 1991.2 942.257 1992.66 848.511 1987.77 C 800.296 1984.75 752.171 1980.44 704.186 1974.86 L 707.007 1974.09 C 709.791 1969.46 718.747 1876.9 720.249 1865.17 C 728.266 1802.58 737.97 1741.41 756.488 1681.18 C 763.644 1658.02 771.961 1635.24 781.406 1612.92 C 785.11 1604.29 799.507 1575.51 799.298 1568.65 L 798.073 1567.6 C 784.419 1572.26 751.843 1649.32 744.604 1666.96 C 733.722 1677.66 713.373 1721.35 705.097 1725.3 C 690.503 1710.13 677.74 1697.55 665.692 1679.78 C 659.245 1670.26 654.581 1661.06 648.417 1651.68 C 674.839 1625.11 704.323 1598.01 731.903 1572.61 C 744.024 1561.45 770.63 1537.14 784.039 1528.74 C 796.796 1519.95 809.579 1515.49 824.251 1510.93 L 833.144 1508.8 C 839.538 1507.12 846.333 1505.09 852.858 1504.27 C 864.352 1544.74 894.629 1564.82 934.511 1571.87 C 963.679 1572.99 985.232 1571.89 1013.59 1562.66 C 1042.6 1553.22 1083.07 1531.16 1097.3 1502.73 z"/>
<path transform="translate(0,0)" fill="rgb(130,83,145)" d="M 1054.46 1579.74 C 1077.69 1564.51 1101.25 1553.33 1119.34 1530.22 C 1123.16 1525.35 1128.7 1513.58 1132.86 1511.09 C 1151.75 1517.11 1174.26 1526.23 1190.88 1536.79 C 1166.69 1552.57 1082.82 1579.95 1054.46 1579.74 z"/>
<path transform="translate(0,0)" fill="rgb(130,83,145)" d="M 833.144 1508.8 C 839.538 1507.12 846.333 1505.09 852.858 1504.27 C 864.352 1544.74 894.629 1564.82 934.511 1571.87 C 923.515 1572.75 873.171 1567.09 870.265 1568.29 C 855.231 1558.28 832.944 1526.57 833.144 1508.8 z"/>
<path transform="translate(0,0)" fill="rgb(114,61,120)" d="M 1119.76 1508 C 1123.42 1508.8 1129.49 1509.95 1132.86 1511.09 C 1128.7 1513.58 1123.16 1525.35 1119.34 1530.22 C 1101.25 1553.33 1077.69 1564.51 1054.46 1579.74 C 1031.53 1590.23 1007.1 1597.2 981.986 1599.32 C 973.435 1600.05 953.615 1601.1 946.41 1596.26 C 949.59 1593.61 961.173 1593.28 965.754 1593.21 C 1018.07 1592.39 1074.52 1568.42 1108.9 1528.63 C 1113.22 1523.63 1119.68 1517.11 1121.27 1510.28 L 1119.76 1508 z"/>
<path transform="translate(0,0)" fill="rgb(130,83,145)" d="M 824.251 1510.93 C 831.792 1534.24 837.863 1544.98 853.667 1563.69 C 830.857 1563.67 801.828 1540.34 784.884 1529.29 L 784.039 1528.74 C 796.796 1519.95 809.579 1515.49 824.251 1510.93 z"/>
<path transform="translate(0,0)" fill="url(#Gradient8)" d="M 824.251 1510.93 L 833.144 1508.8 C 832.944 1526.57 855.231 1558.28 870.265 1568.29 C 879.686 1575.68 894.136 1582.2 900.538 1588.42 L 900.506 1589.81 C 886.778 1591.35 862.528 1573.6 853.667 1563.69 C 837.863 1544.98 831.792 1534.24 824.251 1510.93 z"/>
<path transform="translate(0,0)" fill="rgb(188,132,208)" d="M 648.417 1651.68 C 654.581 1661.06 659.245 1670.26 665.692 1679.78 C 677.74 1697.55 690.503 1710.13 705.097 1725.3 L 705.483 1725.98 C 704.475 1727.56 702.495 1730.43 701.794 1732.01 L 701.307 1731.99 C 697.936 1738.16 696.174 1741.81 690.85 1746.71 C 669.276 1727.08 642.268 1694.67 629.875 1669.04 C 633.065 1665.48 639.96 1659.53 643.769 1656.08 C 644.69 1654.93 647.214 1652.78 648.417 1651.68 z"/>
<path transform="translate(0,0)" fill="rgb(114,61,120)" d="M 648.417 1651.68 C 654.581 1661.06 659.245 1670.26 665.692 1679.78 C 677.74 1697.55 690.503 1710.13 705.097 1725.3 L 705.483 1725.98 C 704.475 1727.56 702.495 1730.43 701.794 1732.01 L 701.307 1731.99 C 685.996 1716.79 670.56 1699.05 658.1 1681.34 C 653.329 1674.55 649.036 1663.53 644.668 1657.33 L 643.769 1656.08 C 644.69 1654.93 647.214 1652.78 648.417 1651.68 z"/>
<path transform="translate(0,0)" fill="rgb(130,83,145)" d="M 744.604 1666.96 C 738.111 1693.74 730.744 1715.44 724.976 1743.35 C 719.673 1737.66 711.527 1730.87 705.483 1725.98 L 705.097 1725.3 C 713.373 1721.35 733.722 1677.66 744.604 1666.96 z"/>
<path transform="translate(0,0)" fill="rgb(130,83,145)" d="M 705.483 1725.98 C 711.527 1730.87 719.673 1737.66 724.976 1743.35 L 723.384 1750.27 C 721.737 1757.22 720.376 1761.97 718.121 1768.75 C 708.081 1761.98 699.836 1754.69 690.85 1746.71 C 696.174 1741.81 697.936 1738.16 701.307 1731.99 L 701.794 1732.01 C 702.495 1730.43 704.475 1727.56 705.483 1725.98 z"/>
<path transform="translate(0,0)" fill="rgb(81,29,65)" d="M 705.483 1725.98 C 711.527 1730.87 719.673 1737.66 724.976 1743.35 L 723.384 1750.27 C 716.021 1744.38 708.822 1738.3 701.794 1732.01 C 702.495 1730.43 704.475 1727.56 705.483 1725.98 z"/>
<path transform="translate(0,0)" fill="rgb(198,160,215)" d="M 905.687 162.818 C 948.74 154.086 1034.33 159.997 1072.67 179.59 C 1103.11 171.033 1124.51 166.154 1156.76 166.833 C 1164.36 166.994 1171.91 166.553 1179.49 167.864 C 1206.18 169.02 1227.86 173.781 1253.61 180.149 C 1369.94 208.921 1492.46 280.746 1574.12 367.901 C 1688.03 489.485 1728.72 643.595 1744.59 805.099 C 1751.42 874.652 1755.89 936.961 1752.52 1007.95 C 1750.42 1052.05 1746.01 1098.72 1745.21 1142.71 C 1742.75 1278.18 1754.56 1433.7 1816.75 1556.05 C 1851.26 1623.81 1899.92 1684.95 1913.19 1761.82 C 1920.48 1804.01 1914.22 1844.38 1881.25 1873.86 C 1842.54 1908.48 1781.25 1930.22 1807.42 1994.55 C 1763.11 1965.19 1791.85 1927.18 1807.9 1891.56 C 1813.61 1878.88 1817.99 1864.44 1821.54 1850.95 C 1828.48 1817.58 1826.31 1777.73 1819.96 1744.61 C 1811.68 1701.4 1793.98 1672.53 1777.22 1634.05 C 1766.07 1633.72 1770.81 1630.57 1762.88 1628.78 L 1761.3 1630.75 C 1792.59 1718.45 1790.55 1805.18 1726.75 1878.58 C 1693.63 1916.69 1660.87 1941.76 1692.78 1994.69 C 1682.98 1992.74 1673.17 1990.91 1663.49 1988.4 C 1633.07 1981.78 1593.86 1960.59 1625.75 1927.03 C 1627.73 1921.79 1630.18 1917.46 1627.92 1912.36 C 1618.02 1918.81 1609.42 1927.01 1598.93 1933.43 C 1555.1 1960.23 1518.22 1960.18 1469.5 1957.77 C 1490.46 1934.44 1491.14 1919.14 1501.94 1890.62 C 1502.39 1883.13 1502.75 1883.15 1497.26 1878.56 C 1480 1906.45 1433.3 1924.85 1402.96 1933.16 C 1392.41 1936.06 1377.29 1937.75 1366.1 1939.39 C 1364.61 1921.44 1362.04 1918.17 1351.49 1904.01 C 1358.46 1894.97 1368.47 1886.72 1375.54 1878.56 C 1394.54 1856.6 1436.07 1813.91 1437.44 1784.51 C 1439 1751.13 1398.11 1708.3 1376.33 1685.13 L 1381.79 1675.42 C 1376.89 1667.55 1371.21 1662.13 1364.72 1655.59 C 1374.72 1636.91 1391.27 1614.82 1402.45 1596.21 C 1421.62 1564.28 1439.2 1530.16 1453.56 1495.84 C 1454.12 1493.5 1460.87 1478.86 1462.37 1475.57 C 1478.15 1442.94 1495.24 1378.48 1504.2 1342.96 C 1520.11 1340.86 1530.42 1338.87 1545.3 1333.29 C 1548.72 1331.34 1556.39 1328.22 1560.31 1326.52 C 1561.33 1326.01 1562.33 1325.48 1563.31 1324.92 C 1600.26 1304.16 1619.79 1279.81 1632.1 1238.87 C 1648 1185.95 1627.73 1111.6 1568.9 1095.37 C 1559.13 1093.28 1551.67 1093.04 1541.73 1092.84 C 1542.39 1065.13 1543.95 1039.28 1542.73 1011.18 L 1544.65 1009.47 C 1542.82 997.379 1542.94 981.785 1542.68 969.305 C 1542.43 947.908 1541.79 926.518 1540.77 905.145 C 1537.22 843.512 1522.8 770.809 1505.86 711.187 C 1502.57 712.744 1496.41 715.348 1493.79 717.41 L 1331.21 796.942 C 1327.31 798.563 1321.31 800.833 1317.72 802.704 C 1286.91 815.615 1256.17 832.943 1225.33 846.252 C 1215.31 850.578 1197.05 862.433 1186.79 860.575 C 1179.87 854.932 1172.85 842.436 1166.49 835.638 C 1138.79 806.036 1139.58 810.896 1158.83 779.428 C 1143.72 784.492 1123.86 787.686 1108.06 791.427 C 1101.2 793.054 1083.75 797.161 1077.71 797.611 C 1069.49 778.146 1056.66 731.956 1053.77 710.861 C 1051.82 707.227 1053.19 708.421 1050.05 706.641 C 1043.55 708.013 1041.9 713.656 1041.07 719.554 L 1039.67 768.274 C 1037.48 771.533 1038.5 800.198 1038.59 806.102 C 1022.97 808.796 1005.47 809.304 989.592 810.709 C 939.68 815.123 890.418 815.412 840.43 811.742 C 807.559 809.328 772.859 804.065 740.057 802.75 C 736.854 753.752 739.07 698.941 748.624 650.711 L 747.299 648.57 C 739.49 648.544 738.216 657.82 732.815 661.328 C 706.125 703.841 685.949 735.177 666.089 782.903 C 653.525 812.807 631.73 871.602 625.275 903.372 C 624.906 905.139 621.927 919.678 621.51 920.661 L 620.347 919.152 C 611.205 919.667 582.93 931.791 574.7 936.021 L 574.982 926.988 L 575.188 914.264 C 566.415 913.764 565.375 918.015 561.879 925.199 C 555.021 951.074 548.006 977.927 538.396 1002.93 C 533.028 1018.55 524.849 1038.2 516.592 1052.27 C 513.548 1059.57 507.818 1065.79 502.684 1071.8 C 503.377 1073.97 507.542 1095.24 507.792 1097.95 C 508.653 1107.27 523.092 1151.06 521.367 1155.83 C 519.257 1157.56 517.836 1158.39 516.732 1160.88 C 517.739 1169.4 528.286 1169.91 531.653 1175.54 C 544.75 1197.44 554.11 1214.25 571.798 1233.15 C 557.342 1233.26 543.422 1233.1 529.14 1230.59 C 456.769 1217.88 399.523 1153.25 367.894 1090.77 C 337.179 1030.09 326.195 968.652 331.205 901.76 C 323.289 907.958 319.625 920.893 316.237 930.392 C 301.136 983.67 300.397 1040.44 304.844 1095.2 C 303.213 1091.9 301.638 1088.58 300.122 1085.22 C 266.125 1008.99 264.471 883.478 280.851 803.065 C 283.779 788.695 286.536 767.258 291.712 753.738 C 295.06 736.294 305.931 703.714 311.977 687.062 C 327.193 644.21 345.649 602.578 367.186 562.528 C 371.126 555.344 375.324 548.363 379.538 541.338 C 421.188 471.906 458.977 399.948 520.512 345.242 C 528.932 333.321 561.733 308.295 573.884 298.897 C 667.29 226.662 788.32 176.287 905.687 162.818 z"/>
<path transform="translate(0,0)" fill="rgb(152,106,171)" d="M 1545.3 1333.29 C 1548.32 1336.68 1548.01 1360.51 1548.68 1367.17 C 1551.31 1393.69 1555.41 1420.62 1561.39 1446.61 C 1572.9 1496.54 1588.93 1542.84 1608.92 1589.99 C 1643.41 1671.35 1677.57 1718.07 1672.07 1812.45 C 1670.24 1843.92 1660.44 1873.27 1641.1 1898.32 C 1637.17 1903.42 1631.63 1907.44 1627.92 1912.36 C 1618.02 1918.81 1609.42 1927.01 1598.93 1933.43 C 1555.1 1960.23 1518.22 1960.18 1469.5 1957.77 C 1490.46 1934.44 1491.14 1919.14 1501.94 1890.62 C 1502.39 1883.13 1502.75 1883.15 1497.26 1878.56 C 1480 1906.45 1433.3 1924.85 1402.96 1933.16 C 1392.41 1936.06 1377.29 1937.75 1366.1 1939.39 C 1364.61 1921.44 1362.04 1918.17 1351.49 1904.01 C 1358.46 1894.97 1368.47 1886.72 1375.54 1878.56 C 1394.54 1856.6 1436.07 1813.91 1437.44 1784.51 C 1439 1751.13 1398.11 1708.3 1376.33 1685.13 L 1381.79 1675.42 C 1376.89 1667.55 1371.21 1662.13 1364.72 1655.59 C 1374.72 1636.91 1391.27 1614.82 1402.45 1596.21 C 1421.62 1564.28 1439.2 1530.16 1453.56 1495.84 C 1454.12 1493.5 1460.87 1478.86 1462.37 1475.57 C 1478.15 1442.94 1495.24 1378.48 1504.2 1342.96 C 1520.11 1340.86 1530.42 1338.87 1545.3 1333.29 z"/>
<path transform="translate(0,0)" fill="rgb(152,106,171)" d="M 1453.56 1495.84 C 1456.1 1499.99 1456.96 1515.54 1458.03 1521.49 C 1476.59 1624.78 1545.7 1718.76 1517.88 1827.64 C 1514.65 1840.27 1510.09 1852.33 1504.47 1864.09 C 1503.38 1866.46 1497.74 1877.04 1497.26 1878.56 C 1480 1906.45 1433.3 1924.85 1402.96 1933.16 C 1392.41 1936.06 1377.29 1937.75 1366.1 1939.39 C 1364.61 1921.44 1362.04 1918.17 1351.49 1904.01 C 1358.46 1894.97 1368.47 1886.72 1375.54 1878.56 C 1394.54 1856.6 1436.07 1813.91 1437.44 1784.51 C 1439 1751.13 1398.11 1708.3 1376.33 1685.13 L 1381.79 1675.42 C 1376.89 1667.55 1371.21 1662.13 1364.72 1655.59 C 1374.72 1636.91 1391.27 1614.82 1402.45 1596.21 C 1421.62 1564.28 1439.2 1530.16 1453.56 1495.84 z"/>
<path transform="translate(0,0)" fill="rgb(114,61,120)" d="M 1462.37 1475.57 C 1464.54 1480.8 1465.81 1493.01 1466.64 1499.08 C 1480.64 1601.2 1545.49 1692 1535.16 1797.41 C 1531.76 1832.11 1524.28 1862.94 1501.94 1890.62 C 1502.39 1883.13 1502.75 1883.15 1497.26 1878.56 C 1497.74 1877.04 1503.38 1866.46 1504.47 1864.09 C 1510.09 1852.33 1514.65 1840.27 1517.88 1827.64 C 1545.7 1718.76 1476.59 1624.78 1458.03 1521.49 C 1456.96 1515.54 1456.1 1499.99 1453.56 1495.84 C 1454.12 1493.5 1460.87 1478.86 1462.37 1475.57 z"/>
<path transform="translate(0,0)" fill="url(#Gradient7)" d="M 344.214 651.832 C 384.559 674.338 423.05 696.813 465.588 715.412 C 486.279 724.459 506.477 732.58 527.45 740.931 C 502.517 841.627 484.514 969.054 502.684 1071.8 C 503.377 1073.97 507.542 1095.24 507.792 1097.95 C 508.653 1107.27 523.092 1151.06 521.367 1155.83 C 519.257 1157.56 517.836 1158.39 516.732 1160.88 C 517.739 1169.4 528.286 1169.91 531.653 1175.54 C 544.75 1197.44 554.11 1214.25 571.798 1233.15 C 557.342 1233.26 543.422 1233.1 529.14 1230.59 C 456.769 1217.88 399.523 1153.25 367.894 1090.77 C 337.179 1030.09 326.195 968.652 331.205 901.76 C 323.289 907.958 319.625 920.893 316.237 930.392 C 301.136 983.67 300.397 1040.44 304.844 1095.2 C 303.213 1091.9 301.638 1088.58 300.122 1085.22 C 266.125 1008.99 264.471 883.478 280.851 803.065 C 283.779 788.695 286.536 767.258 291.712 753.738 L 292.209 753.982 L 293.287 752.949 C 295.308 743.223 305.689 706.907 313.8 703.524 L 315.666 704.841 C 320.146 717.418 298.826 737.667 300.507 752.349 C 304.429 739.014 307.271 735.418 313.002 723.392 C 316.678 715.207 319.153 705.99 323.206 698.023 C 331.157 682.393 338.033 668.264 344.214 651.832 z"/>
<path transform="translate(0,0)" fill="rgb(130,83,145)" d="M 316.237 930.392 C 314.683 922.59 317.217 907.478 318.32 899.066 C 324.01 855.678 333.779 811.285 351.774 771.23 C 354.904 764.264 360.306 751.82 367.593 749.149 L 369.106 749.967 C 369.896 756.147 351.408 806.105 347.974 818.543 C 339.199 850.319 336.48 869.979 331.205 901.76 C 323.289 907.958 319.625 920.893 316.237 930.392 z"/>
<path transform="translate(0,0)" fill="rgb(45,13,21)" d="M 1185.74 624.992 C 1204.12 599.223 1222.99 573.725 1240.82 547.559 C 1246.3 539.51 1251.06 530.992 1256.6 522.986 C 1265.22 510.52 1274.55 498.525 1283.3 486.148 C 1289.8 476.96 1296.01 467.201 1303.21 458.548 C 1306.38 454.737 1310.16 450.826 1314.65 448.608 C 1318.03 446.942 1322.18 448.384 1325.45 449.639 C 1336.9 454.032 1382.26 480.722 1386.45 490.864 C 1391.19 502.329 1378.62 521.017 1374.56 532.04 C 1373.4 535.174 1372.93 537.043 1374.3 540.125 C 1377.27 542.132 1386.55 541.698 1390.84 541.793 C 1394.74 545.011 1397.95 549.124 1401.26 552.985 C 1406.05 546.512 1413.33 545.701 1421.44 543.311 C 1432.21 563.482 1442.91 583.809 1452.14 604.744 C 1455.19 611.528 1458.15 618.349 1461.03 625.207 L 1472.81 621.415 C 1477.84 619.536 1484.79 616.265 1489.86 617.718 C 1505.23 628.747 1520.04 674.031 1525.55 693.008 C 1528.36 702.692 1512.9 707.911 1505.86 711.187 C 1502.57 712.744 1496.41 715.348 1493.79 717.41 L 1331.21 796.942 C 1327.31 798.563 1321.31 800.833 1317.72 802.704 C 1286.91 815.615 1256.17 832.943 1225.33 846.252 C 1215.31 850.578 1197.05 862.433 1186.79 860.575 C 1179.87 854.932 1172.85 842.436 1166.49 835.638 C 1138.79 806.036 1139.58 810.896 1158.83 779.428 C 1168.64 766.965 1173.37 756.824 1181.67 743.64 C 1186.74 735.577 1194.67 726.432 1200.97 719.037 C 1188.05 701.72 1170.96 679.368 1162.23 659.577 C 1158.7 651.592 1180.82 632.459 1185.74 624.992 z"/>
<path transform="translate(0,0)" fill="rgb(220,203,233)" d="M 1401.26 552.985 C 1406.05 546.512 1413.33 545.701 1421.44 543.311 C 1432.21 563.482 1442.91 583.809 1452.14 604.744 C 1455.19 611.528 1458.15 618.349 1461.03 625.207 C 1451.87 628.106 1443.28 630.421 1434.02 632.875 C 1425.78 635.494 1418.22 637.526 1409.84 639.705 C 1417.72 627.264 1424.22 614.45 1431.5 601.676 C 1427.86 586.055 1411.29 566.643 1401.26 552.985 z"/>
<path transform="translate(0,0)" fill="rgb(198,160,215)" d="M 1452.14 604.744 C 1455.19 611.528 1458.15 618.349 1461.03 625.207 C 1451.87 628.106 1443.28 630.421 1434.02 632.875 C 1442.01 620.666 1444.05 620.671 1452.14 604.744 z"/>
<path transform="translate(0,0)" fill="rgb(252,245,242)" d="M 1317.25 456.475 C 1325.86 458.573 1372.01 487.608 1380.02 494.433 C 1372.78 513.886 1362.89 535.624 1356.65 554.779 C 1366.98 553.86 1378.42 551.947 1388.77 550.439 C 1400.38 564.018 1410.06 583.451 1421.63 598.304 C 1416.37 611.503 1395.71 644.892 1387.56 657.428 C 1420.44 647.293 1457.64 635.134 1490.46 626.021 C 1498.68 640.612 1512.28 679.18 1517.32 695.367 C 1512.08 699.089 1495.8 706.448 1489.15 709.662 L 1437.28 734.834 L 1369.81 767.707 C 1356.64 774.189 1344.75 780.692 1331.24 786.538 C 1296.07 803.938 1260.67 820.851 1225.03 837.27 C 1213.6 842.456 1201.21 849.507 1189.61 853.449 C 1179.55 838.335 1160.07 821.164 1149.81 805.483 C 1153.56 798.807 1160.56 790.062 1164.92 783.071 C 1180.29 758.378 1196.44 735.833 1213.53 712.376 L 1211.91 710.496 C 1211.2 710.338 1205.49 708.939 1205.06 708.351 C 1193.25 692.385 1181.72 676.191 1170.73 659.652 C 1178.35 646.868 1190.31 631.722 1199.38 619.576 C 1214.07 600.242 1228.42 580.66 1242.44 560.839 L 1296.53 484.221 C 1301.96 476.616 1310.91 462.522 1317.25 456.475 z"/>
<path transform="translate(0,0)" fill="rgb(45,13,21)" d="M 1320.62 469.818 C 1332.81 475.566 1354.47 489.991 1367.26 497.372 C 1356.98 519.541 1346.49 546.486 1336.94 569.325 C 1353.11 568.583 1367.46 564.195 1383.72 562.674 C 1392.02 575.232 1400.46 587.693 1409.05 600.055 C 1402.65 608.138 1392.64 625.947 1386.75 635.657 C 1380.11 646.634 1368.15 664.768 1363.33 675.614 C 1403.89 665.766 1443.93 649.806 1484.19 639.427 C 1490.08 652.519 1500.03 676.881 1504.2 690.477 C 1448.89 716.33 1386.79 745.993 1332.49 774.024 C 1299.34 790.641 1265.25 805.008 1232.18 821.814 C 1219.82 828.095 1205.03 835.62 1191.87 839.709 C 1183.85 828.383 1167.54 813.183 1162.56 803.943 C 1166.39 799.487 1169.13 795.785 1172.2 790.705 C 1189.24 762.493 1208.68 735.95 1226.65 708.398 C 1231.24 701.361 1234.86 695.883 1240.28 689.457 C 1230.83 691.337 1220.39 694.7 1211.07 697.521 C 1201.98 684.001 1192.5 673.395 1183.17 660.381 C 1202.4 630.952 1224.33 604.16 1244.48 575.567 C 1269.49 540.069 1294.69 504.655 1320.62 469.818 z"/>
<path transform="translate(0,0)" fill="rgb(179,118,233)" d="M 1202.55 659.232 C 1207.34 654.657 1209.84 649.743 1213.86 644.485 C 1223.4 632.021 1232.42 619.461 1241.44 606.623 C 1258.61 582.34 1276.02 558.224 1293.66 534.277 C 1305.16 518.365 1312.86 505.881 1325.51 490.256 C 1331.87 494.439 1340.38 497.948 1347.95 502.746 C 1336.27 530.542 1322.59 562.311 1309.48 589.425 C 1331.76 588.43 1354.89 581.98 1377.68 580.719 C 1385.34 589.02 1385.49 590.923 1388.2 601.759 L 1347.67 667.201 C 1340.47 678.964 1332.65 690.735 1326.25 702.886 C 1334.35 700.698 1342.45 698.232 1350.54 696.093 C 1393.44 684.747 1434.31 668.447 1477.69 658.807 C 1480.35 667.141 1482.77 673.338 1486.13 681.452 C 1474.76 688.292 1459.93 694.401 1447.87 700.449 C 1419.4 714.722 1389.63 728.028 1361.36 742.558 C 1353.59 751.069 1305.07 775.712 1293.45 779.072 L 1309.75 769.927 C 1300.6 773.659 1269.21 789.481 1262.81 789.466 C 1254.02 790.909 1213.89 814.764 1195.84 819.804 C 1191.87 815.289 1186.48 807.49 1182.77 802.434 C 1187.01 796.642 1190.54 788.47 1194.59 783.256 C 1206.01 770.467 1213.63 754.538 1223.39 741.269 C 1243.38 714.105 1261.67 686.204 1280.1 658.024 C 1258.04 663.948 1240.55 673.174 1215.11 678.477 C 1210.76 672.318 1206.62 665.611 1202.55 659.232 z"/>
<path transform="translate(0,0)" fill="rgb(59,13,24)" d="M 1262.81 789.466 C 1269.77 785.128 1288.97 776.798 1297.48 772.81 C 1318.3 763.041 1340.33 751.266 1361.36 742.558 C 1353.59 751.069 1305.07 775.712 1293.45 779.072 L 1309.75 769.927 C 1300.6 773.659 1269.21 789.481 1262.81 789.466 z"/>
<path transform="translate(0,0)" fill="rgb(252,245,242)" d="M 1300.73 545.698 C 1306.56 546.94 1307.65 550.558 1306.76 555.754 C 1281.98 588.994 1258.57 624.884 1235.32 659.312 C 1233.58 661.893 1231.25 662.664 1228.49 663.367 C 1223.99 660.349 1221.03 659.351 1220.4 653.81 C 1227.81 638.797 1251.43 609.437 1261.73 593.975 C 1270.57 580.691 1283.5 564.06 1293.28 551.014 C 1294.84 548.937 1298.37 546.941 1300.73 545.698 z"/>
<path transform="translate(0,0)" fill="rgb(252,245,242)" d="M 1250.92 722.906 C 1256.01 723.302 1260.51 724.606 1262.31 729.659 C 1258.53 740.676 1223.02 786.814 1213.17 799.714 C 1207.68 800.691 1204.18 800.134 1202.62 794.266 C 1204.76 786.47 1243.29 727.738 1250.92 722.906 z"/>
<path transform="translate(0,0)" fill="rgb(220,203,233)" d="M 757.665 607.283 C 850.891 630.353 950.254 645.318 1046.45 638.695 C 1044.19 658.217 1040.52 699.495 1041.07 719.554 L 1039.67 768.274 C 1037.48 771.533 1038.5 800.198 1038.59 806.102 C 1022.97 808.796 1005.47 809.304 989.592 810.709 C 939.68 815.123 890.418 815.412 840.43 811.742 C 807.559 809.328 772.859 804.065 740.057 802.75 C 736.854 753.752 739.07 698.941 748.624 650.711 C 751.926 636.365 754.394 621.798 757.665 607.283 z"/>
<path transform="translate(0,0)" fill="rgb(220,203,233)" d="M 520.512 345.242 C 519.048 350.773 504.167 362.197 499.501 369.262 C 502.228 370.681 503.53 370.254 506.245 372.118 C 512.993 370.781 519.003 358.592 523.557 353.406 C 524.716 352.087 523.943 352.028 525.015 352.44 C 520.448 362.329 509.918 373.367 503.581 382.077 C 489.734 401.108 456.117 445.089 449.783 465.511 C 491.455 492.525 532.224 518.542 577.307 539.638 C 581.951 541.811 601.654 550.878 603.778 554.226 C 570.121 609.904 544.297 678.279 527.45 740.931 C 506.477 732.58 486.279 724.459 465.588 715.412 C 423.05 696.813 384.559 674.338 344.214 651.832 C 338.033 668.264 331.157 682.393 323.206 698.023 C 319.153 705.99 316.678 715.207 313.002 723.392 C 307.271 735.418 304.429 739.014 300.507 752.349 C 298.826 737.667 320.146 717.418 315.666 704.841 L 313.8 703.524 C 305.689 706.907 295.308 743.223 293.287 752.949 L 292.209 753.982 L 291.712 753.738 C 295.06 736.294 305.931 703.714 311.977 687.062 C 327.193 644.21 345.649 602.578 367.186 562.528 C 371.126 555.344 375.324 548.363 379.538 541.338 C 421.188 471.906 458.977 399.948 520.512 345.242 z"/>
<path transform="translate(0,0)" fill="rgb(220,203,233)" d="M 1057.16 638.873 C 1060.84 637.994 1077.5 637.184 1083.05 636.753 C 1096.98 635.67 1108.03 633.822 1122.25 632.258 C 1142.27 630.058 1163.2 623.727 1183.12 622.322 C 1184.41 622.23 1184.74 623.502 1185.74 624.992 C 1180.82 632.459 1158.7 651.592 1162.23 659.577 C 1170.96 679.368 1188.05 701.72 1200.97 719.037 C 1194.67 726.432 1186.74 735.577 1181.67 743.64 C 1173.37 756.824 1168.64 766.965 1158.83 779.428 C 1143.72 784.492 1123.86 787.686 1108.06 791.427 C 1101.2 793.054 1083.75 797.161 1077.71 797.611 C 1069.49 778.146 1056.66 731.956 1053.77 710.861 C 1053.64 688.174 1055.81 661.773 1057.16 638.873 z"/>
<path transform="translate(0,0)" fill="rgb(220,203,233)" d="M 659.121 574.587 C 687.541 586.032 716.355 593.532 743.717 604.369 C 739.386 623.038 736.99 642.407 732.815 661.328 C 706.125 703.841 685.949 735.177 666.089 782.903 C 646.873 777.451 623.91 771.913 604.428 767.042 C 612.326 734.768 616.601 705.892 626.348 672.251 C 631.614 654.401 637.285 636.674 643.358 619.082 C 648.564 604.414 654.663 589.402 659.121 574.587 z"/>
<path transform="translate(0,0)" fill="rgb(114,61,120)" d="M 603.778 554.226 C 612.229 542.767 639.051 499.953 651.813 496 C 654.818 496.874 653.592 496.045 655.479 498.758 C 654.896 505.167 636.299 526.492 631.83 533.218 C 626.893 540.65 621.962 548.342 617.387 556.229 C 583.321 616.06 557.663 680.301 541.137 747.137 C 531.04 791.696 522.62 834.587 517.692 880.053 C 520.54 899.01 528.596 993.002 538.396 1002.93 C 533.028 1018.55 524.849 1038.2 516.592 1052.27 C 513.548 1059.57 507.818 1065.79 502.684 1071.8 C 484.514 969.054 502.517 841.627 527.45 740.931 C 544.297 678.279 570.121 609.904 603.778 554.226 z"/>
<path transform="translate(0,0)" fill="rgb(152,106,171)" d="M 516.592 1052.27 C 504.547 1029.81 511.943 907.359 517.692 880.053 C 520.54 899.01 528.596 993.002 538.396 1002.93 C 533.028 1018.55 524.849 1038.2 516.592 1052.27 z"/>
<path transform="translate(0,0)" fill="url(#Gradient6)" d="M 1545.3 1333.29 C 1548.72 1331.34 1556.39 1328.22 1560.31 1326.52 C 1564.29 1385.47 1572.07 1447.8 1590.52 1504.19 C 1601.95 1538.54 1615.2 1572.27 1630.21 1605.22 C 1664.9 1681.88 1694.03 1735.82 1684.85 1824.45 C 1679.93 1871.93 1652.46 1892.4 1645.14 1929.15 L 1643.03 1932.58 C 1643.04 1937.05 1643.69 1943.04 1640.01 1946.04 C 1638.69 1945.33 1638.23 1944.99 1637.6 1943.51 C 1634.16 1935.4 1631.25 1935.78 1623.73 1932.17 L 1626.12 1928.48 L 1625.75 1927.03 C 1627.73 1921.79 1630.18 1917.46 1627.92 1912.36 C 1631.63 1907.44 1637.17 1903.42 1641.1 1898.32 C 1660.44 1873.27 1670.24 1843.92 1672.07 1812.45 C 1677.57 1718.07 1643.41 1671.35 1608.92 1589.99 C 1588.93 1542.84 1572.9 1496.54 1561.39 1446.61 C 1555.41 1420.62 1551.31 1393.69 1548.68 1367.17 C 1548.01 1360.51 1548.32 1336.68 1545.3 1333.29 z"/>
<path transform="translate(0,0)" fill="rgb(220,203,233)" d="M 617.387 556.229 C 626.729 563.572 633.195 565.645 644.396 570.082 C 621.117 611.053 591.552 714.78 584.453 762.694 C 572.229 757.971 550.167 752.981 541.137 747.137 C 557.663 680.301 583.321 616.06 617.387 556.229 z"/>
<path transform="translate(0,0)" fill="rgb(152,106,171)" d="M 905.687 162.818 C 948.74 154.086 1034.33 159.997 1072.67 179.59 C 1103.11 171.033 1124.51 166.154 1156.76 166.833 C 1164.36 166.994 1171.91 166.553 1179.49 167.864 C 1172.1 168.405 1163.42 167.625 1154.6 168.252 C 1148.64 172.265 1136.49 178.053 1129.66 181.708 C 1117.92 187.987 1106.56 194.942 1095.63 202.539 C 1091.51 205.373 1086.12 208.981 1082.43 211.974 C 1055.69 233.697 1059.47 245.079 1030.33 217.426 C 997.748 186.502 947.214 177.56 905.687 162.818 z"/>
<path transform="translate(0,0)" fill="rgb(130,83,145)" d="M 1421.44 543.311 C 1391.61 486.221 1332.11 407.216 1278.43 370.321 C 1268.71 363.587 1258.46 357.65 1247.79 352.566 C 1242.34 349.988 1235.33 347.952 1230.79 345.104 C 1229.81 342.133 1229.81 343.63 1231.18 340.478 C 1233.72 338.764 1236.43 338.589 1239.39 339.453 C 1318.92 362.614 1374.28 446.339 1417.45 512.564 C 1422.87 520.876 1426.69 529.862 1432.17 537.761 L 1432.68 538.478 C 1438.84 550.802 1445.09 563.787 1451.47 575.942 C 1458.25 590.82 1466.8 606.652 1472.81 621.415 L 1461.03 625.207 C 1458.15 618.349 1455.19 611.528 1452.14 604.744 C 1442.91 583.809 1432.21 563.482 1421.44 543.311 z"/>
<path transform="translate(0,0)" fill="rgb(114,61,120)" d="M 743.717 604.369 C 749.877 574.683 789.521 453.091 817.842 443.916 L 819.695 444.641 C 820.636 447.878 819.514 449.705 817.583 453.037 C 789.845 500.884 768.651 552.827 757.665 607.283 C 754.394 621.798 751.926 636.365 748.624 650.711 L 747.299 648.57 C 739.49 648.544 738.216 657.82 732.815 661.328 C 736.99 642.407 739.386 623.038 743.717 604.369 z"/>
<path transform="translate(0,0)" fill="rgb(130,83,145)" d="M 1755.49 1615.4 C 1745.01 1597.83 1692.12 1476.33 1705.09 1461.41 C 1706.42 1461.07 1707.37 1460.47 1708.08 1461.41 C 1713.32 1468.36 1718.07 1488.65 1721.33 1497.47 C 1732.02 1526.38 1743.53 1553.5 1755.32 1581.8 C 1760.29 1593.73 1770.34 1614.68 1773.71 1626.08 C 1768.94 1621.62 1762.17 1615.84 1755.49 1615.4 z"/>
<path transform="translate(0,0)" fill="rgb(152,106,171)" d="M 1625.75 1927.03 L 1626.12 1928.48 L 1623.73 1932.17 C 1631.25 1935.78 1634.16 1935.4 1637.6 1943.51 C 1638.23 1944.99 1638.69 1945.33 1640.01 1946.04 C 1643.69 1943.04 1643.04 1937.05 1643.03 1932.58 L 1645.14 1929.15 C 1644.52 1955.22 1644.81 1967.71 1663.49 1988.4 C 1633.07 1981.78 1593.86 1960.59 1625.75 1927.03 z"/>
<path transform="translate(0,0)" fill="rgb(114,61,120)" d="M 1046.45 638.695 C 1047.47 628.021 1050.52 594.312 1056.23 587.192 L 1058 586.721 C 1059.66 588.005 1061.15 588.872 1060.82 591.432 C 1058.76 607.201 1058.18 623.013 1057.16 638.873 C 1055.81 661.773 1053.64 688.174 1053.77 710.861 C 1051.82 707.227 1053.19 708.421 1050.05 706.641 C 1043.55 708.013 1041.9 713.656 1041.07 719.554 C 1040.52 699.495 1044.19 658.217 1046.45 638.695 z"/>
<path transform="translate(0,0)" fill="rgb(130,83,145)" d="M 1544.65 1009.47 C 1548.37 1017.94 1554.73 1042.28 1557.05 1051.98 C 1560.39 1065.99 1565.61 1081.83 1568.9 1095.37 C 1559.13 1093.28 1551.67 1093.04 1541.73 1092.84 C 1542.39 1065.13 1543.95 1039.28 1542.73 1011.18 L 1544.65 1009.47 z"/>
<path transform="translate(0,0)" fill="rgb(220,203,233)" d="M 1432.68 538.478 C 1441.36 534.5 1450.25 530.994 1459.3 527.975 C 1458.54 536.665 1454.84 569.518 1451.47 575.942 C 1445.09 563.787 1438.84 550.802 1432.68 538.478 z"/>
<path transform="translate(0,0)" fill="url(#Gradient5)" d="M 561.879 925.199 C 561.906 913.001 567.565 863.67 579.819 860.401 L 581.06 861.747 C 582.057 866.96 576.537 905.774 575.188 914.264 C 566.415 913.764 565.375 918.015 561.879 925.199 z"/>
<path transform="translate(0,0)" fill="url(#Gradient4)" d="M 625.275 903.372 C 624.906 905.139 621.927 919.678 621.51 920.661 L 620.347 919.152 C 611.205 919.667 582.93 931.791 574.7 936.021 L 574.982 926.988 C 578.027 926.092 589.648 918.768 592.91 916.878 C 603.047 910.952 613.932 906.409 625.275 903.372 z"/>
<path transform="translate(0,0)" fill="rgb(81,29,65)" d="M 1755.49 1615.4 C 1762.17 1615.84 1768.94 1621.62 1773.71 1626.08 L 1777.22 1634.05 C 1766.07 1633.72 1770.81 1630.57 1762.88 1628.78 L 1761.3 1630.75 C 1759.65 1627.2 1756.96 1619.35 1755.49 1615.4 z"/>
<path transform="translate(0,0)" fill="rgb(252,245,242)" d="M 712.61 902.998 L 741.901 902.997 C 754.053 940.753 765.111 975.667 787.412 1009.01 C 790.368 1013.43 794.049 1018.4 796.739 1022.85 C 812.898 1043.12 829.487 1063.41 857.051 1065.95 C 863.356 1066.53 867.045 1066.86 869.099 1060.03 C 868.416 1055.4 865.922 1052.94 863.271 1048.93 C 866.955 1046.76 868.855 1045.71 873.079 1047 C 883.521 1050.2 894.898 1053.85 905.179 1057.48 C 907.428 1058.7 917.061 1063.67 919.044 1063.79 C 933.64 1064.64 1009.96 1071.7 1016.72 1059.59 C 1015.88 1054.01 1004.1 1033 1000.86 1024.07 L 1000.23 1022.31 C 1029.94 1047.08 1065.62 1072.22 1107.3 1066.37 C 1109.64 1066.04 1110.65 1064.39 1111.62 1062.58 C 1110.63 1055.52 1103.59 1043.53 1101.25 1035.36 C 1085.29 1004.75 1067.08 937.911 1064.5 903.978 L 1094.72 903.599 L 1108.51 903.989 C 1144.71 964.868 1169.53 995.234 1222.91 1041.66 C 1255.54 1064.97 1293.07 1088.08 1331.96 1099.31 C 1331.06 1113.81 1330.42 1132.15 1328.74 1146.28 C 1328.34 1151.85 1327.09 1172.58 1325.65 1176.83 C 1318.69 1232.98 1311.54 1286.91 1298.82 1342.18 C 1295.25 1357.67 1292.36 1374.92 1288.21 1390.11 C 1209.3 1433 1114.04 1448.43 1025.58 1456.03 C 980.337 1459.92 949.768 1461.91 903.742 1459.23 C 843.572 1455.4 783.993 1445.08 726.044 1428.44 C 663.343 1409.97 599.636 1383.38 551.319 1338.08 C 523.37 1311.87 511.704 1281.49 515.09 1243.43 C 535.583 1247.26 556.252 1251.8 577.099 1247.42 C 582.65 1246.4 587.382 1245.55 592.245 1242.7 C 592.248 1241.61 592.285 1237.31 591.721 1236.65 C 576.587 1218.9 561.944 1203.05 552.368 1181.18 C 557.962 1182.79 564.709 1184.76 570.017 1186.83 C 640.427 1214.3 733.555 1195.43 784.557 1138.58 C 789.118 1133.49 799.287 1121.48 794.566 1114.51 C 793.692 1114.2 792.819 1113.9 791.946 1113.59 C 775.135 1118.32 753.102 1129.14 736.393 1132.88 C 676.087 1146.38 614.83 1151.93 560.03 1119.38 C 547.745 1124.6 543.805 1127.67 533.047 1135.99 C 531.008 1128.62 529.083 1121.23 527.271 1113.8 C 523.486 1101.32 521.48 1089.28 519.525 1076.47 C 532.676 1053.88 540.931 1038.51 549.965 1013.61 C 553.84 1002.93 559.7 983.616 563.999 974.461 C 567.456 993.348 571.114 1005.42 577.69 1023.2 C 586.531 1044.1 598.882 1069.13 620.395 1080.57 C 622.654 1081.78 624.839 1082.23 627.274 1081.38 C 629.457 1078.25 627.995 1067.8 627.622 1063.89 C 625.85 1045.36 624.276 1027.25 625.131 1008.6 C 624.688 971.319 632.454 949.292 637.219 914.773 C 650.34 911.639 663.702 909.554 677.01 907.395 C 686.215 904.69 702.967 903.386 712.61 902.998 z"/>
<path transform="translate(0,0)" fill="url(#Gradient3)" d="M 1325.65 1176.83 C 1323.04 1176.02 1269.07 1196.73 1258.57 1199.13 C 1227.22 1206.14 1194.88 1207.66 1163.01 1203.62 C 1115.63 1197.63 1067.92 1179.72 1038.85 1140.34 C 1034.79 1134.83 1029.88 1128.42 1030.86 1121.31 C 1037.84 1114.7 1060.99 1129.68 1069.92 1132.54 C 1126.39 1150.63 1187.29 1155.03 1245.11 1140.54 C 1259.5 1136.94 1273.33 1129.89 1287.42 1125.65 C 1297.64 1122.58 1320.35 1140.71 1328.74 1146.28 C 1328.34 1151.85 1327.09 1172.58 1325.65 1176.83 z"/>
<path transform="translate(0,0)" fill="rgb(242,193,185)" d="M 1094.72 903.599 L 1108.51 903.989 C 1144.71 964.868 1169.53 995.234 1222.91 1041.66 C 1189.39 1036.06 1120.7 960.151 1097.02 935.316 C 1096.71 957.218 1097.5 981.034 1098.2 1002.99 C 1098.52 1013.26 1101.49 1023.9 1101.25 1035.36 C 1085.29 1004.75 1067.08 937.911 1064.5 903.978 L 1094.72 903.599 z"/>
<path transform="translate(0,0)" fill="rgb(242,193,185)" d="M 519.525 1076.47 C 532.676 1053.88 540.931 1038.51 549.965 1013.61 C 553.84 1002.93 559.7 983.616 563.999 974.461 C 567.456 993.348 571.114 1005.42 577.69 1023.2 C 567.843 1031.46 548.199 1084.64 538.828 1096.78 C 534.762 1102.05 535.036 1110.03 527.271 1113.8 C 523.486 1101.32 521.48 1089.28 519.525 1076.47 z"/>
<path transform="translate(0,0)" fill="rgb(242,193,185)" d="M 712.61 902.998 L 741.901 902.997 C 754.053 940.753 765.111 975.667 787.412 1009.01 C 790.368 1013.43 794.049 1018.4 796.739 1022.85 C 785.853 1018.48 762.468 989.953 755.409 979.432 C 739.645 955.936 724.231 928.799 712.61 902.998 z"/>
<path transform="translate(0,0)" fill="rgb(242,193,185)" d="M 637.219 914.773 C 650.34 911.639 663.702 909.554 677.01 907.395 C 676.83 909.27 676.713 910.816 675.71 912.467 C 659.603 938.967 642.913 965.215 631.113 994.023 C 629.161 998.789 626.091 1003.62 625.131 1008.6 C 624.688 971.319 632.454 949.292 637.219 914.773 z"/>
<path transform="translate(0,0)" fill="rgb(242,193,185)" d="M 577.099 1247.42 C 582.65 1246.4 587.382 1245.55 592.245 1242.7 C 590.728 1250.99 576.293 1290.16 568.012 1290.52 C 557.935 1282 575.915 1258.91 577.099 1247.42 z"/>
<path transform="translate(0,0)" fill="url(#Gradient2)" d="M 832.236 1256.57 C 843.398 1261.13 837.965 1290.87 863.394 1283.34 C 874.64 1280 878.3 1275.95 887.864 1269.94 C 907.216 1284.74 942.102 1300.45 951.544 1264.77 C 952.453 1261.34 956.358 1257.87 960.265 1260.16 C 963.507 1266.28 963.249 1268.39 962.042 1275.27 C 955.65 1295.17 934.173 1303.08 915.057 1298.72 C 904.222 1296.25 897.451 1291.62 888.287 1285.77 C 879.668 1290.68 869.843 1297.24 859.687 1298.16 C 841.566 1299.8 815.208 1272.34 832.236 1256.57 z"/>
<path transform="translate(0,0)" fill="rgb(242,193,185)" d="M 1233.25 1240.34 C 1245.43 1241.94 1238.07 1261.91 1235.79 1269.58 C 1232.6 1280.35 1229.08 1297.24 1221.95 1305.46 C 1220.23 1305.16 1215.05 1303.03 1215.32 1301.18 C 1217.43 1286.84 1225.23 1251.34 1233.25 1240.34 z"/>
<path transform="translate(0,0)" fill="rgb(242,193,185)" d="M 690.299 1230.46 C 692.738 1231.63 697.676 1234.52 696.895 1237.7 C 693.342 1252.18 685.127 1285.68 676.679 1296.54 C 668.944 1295.97 669.146 1289.6 670.979 1283.66 C 675.49 1269.05 681.781 1242.53 690.299 1230.46 z"/>
<path transform="translate(0,0)" fill="rgb(242,193,185)" d="M 1130.46 1236.3 C 1132.3 1237.01 1137.25 1238.86 1136.74 1241.38 C 1133.73 1256.28 1124.13 1290.29 1114.74 1301.3 C 1110.38 1299.75 1111.03 1300.7 1108.57 1297.59 C 1107.53 1286.38 1123.7 1246.54 1130.46 1236.3 z"/>
<path transform="translate(0,0)" fill="rgb(242,193,185)" d="M 1179.2 1239.37 C 1181.77 1240.11 1185.97 1241.49 1185.09 1244.97 C 1181.6 1258.68 1175.15 1295.44 1166.14 1305.26 C 1164.29 1304.6 1159.8 1302.86 1160.24 1300.41 C 1163.09 1284.81 1170.73 1251.97 1179.2 1239.37 z"/>
<path transform="translate(0,0)" fill="rgb(242,193,185)" d="M 637.844 1229.03 C 639.571 1229.51 643.894 1231.94 643.451 1233.56 C 639.501 1248.03 629.803 1283.94 621.822 1295.36 C 618.653 1294.49 618.658 1294.7 616.182 1292.63 C 614.302 1285.86 632.036 1233.77 637.844 1229.03 z"/>
<path transform="translate(0,0)" fill="rgb(192,107,102)" d="M 1051.79 1096.04 C 1058.43 1097.41 1071.91 1103.29 1079.36 1105.56 C 1087.75 1108.12 1100.21 1110.83 1107.74 1114.15 C 1109.42 1116.78 1108.86 1115.99 1108.06 1120.14 C 1097.3 1119.69 1059.32 1108.86 1051.17 1101.94 C 1049.93 1098.4 1050.07 1100.3 1051.79 1096.04 z"/>
<path transform="translate(0,0)" fill="rgb(192,107,102)" d="M 775.002 1091.22 L 777.567 1092.16 L 778.067 1093.39 C 774.288 1103.34 732.288 1111.5 721.124 1113.57 C 720.406 1113.36 718.77 1112.58 718.02 1112.25 L 717.66 1110.21 C 721.084 1105.7 741.274 1101.71 747.998 1099.65 C 755.991 1097.21 767.128 1092.62 775.002 1091.22 z"/>
<path transform="translate(0,0)" fill="rgb(242,193,185)" d="M 874.718 1196.63 C 878.455 1199.01 878.441 1199.12 879.497 1202.4 C 878.733 1205.84 877.562 1206.58 875.127 1209.11 C 871.237 1207.81 870.872 1207.91 869.294 1204.51 C 870.09 1200.8 872.057 1199.39 874.718 1196.63 z"/>
<path transform="translate(0,0)" fill="rgb(198,160,215)" d="M 1493.79 717.41 C 1496.41 715.348 1502.57 712.744 1505.86 711.187 C 1522.8 770.809 1537.22 843.512 1540.77 905.145 C 1541.79 926.518 1542.43 947.908 1542.68 969.305 C 1542.94 981.785 1542.82 997.379 1544.65 1009.47 L 1542.73 1011.18 C 1541.74 1005.19 1540.88 996.763 1533.24 996.853 C 1530.62 998.866 1530.79 998.136 1530.43 1002.44 C 1529.48 1013.94 1530.84 1026.99 1529.12 1038.32 C 1528.16 1082.28 1524.9 1126.96 1518.98 1170.47 C 1514.45 1203.81 1510.98 1240.92 1504.4 1273.69 C 1480.21 1394.1 1440.36 1514.28 1370.87 1616.48 C 1356.56 1637.52 1343.45 1660.36 1329.3 1681.57 C 1304.63 1718.57 1280.74 1753.92 1267.73 1797.14 C 1267.12 1799.16 1263.53 1810.96 1263.34 1812.59 C 1263.5 1816.86 1263.03 1820.31 1261.47 1824.34 C 1264.12 1825.17 1264.3 1825.47 1267 1825.17 C 1266.9 1823.59 1266.85 1822.47 1266.82 1820.84 C 1268.16 1819.53 1267.87 1819.39 1269.38 1818.98 C 1270.94 1814.56 1272.53 1809.78 1274.23 1805.46 C 1277.98 1883.72 1298.59 1938.96 1369.99 1979.41 C 1355.17 1983.15 1316.13 1988.07 1302.32 1983.41 C 1282.97 1982.17 1258.46 1977.1 1244.32 1962.78 C 1239.92 1964.01 1237.97 1964.44 1233.94 1966.43 C 1219.94 1962.56 1205.25 1949.31 1196.01 1938.32 C 1181.54 1921.1 1175.2 1903.75 1169.7 1882.22 C 1147.6 1795.73 1180.76 1714.34 1213.95 1636.34 L 1250.98 1548.69 C 1264.92 1515.97 1277.3 1482.6 1288.06 1448.7 C 1313.51 1368.48 1334.97 1253.65 1342.26 1169.34 C 1346.18 1168.15 1347.19 1167.96 1350.65 1165.91 C 1349.79 1162.8 1347.04 1162 1343.61 1159.2 C 1343.27 1151.15 1344.6 1140.27 1345.23 1131.97 L 1348.49 1088.95 C 1343.39 1086.39 1338.17 1086.55 1332.09 1083.75 C 1319.46 1079.41 1300.83 1073.23 1290.07 1065.7 C 1221.75 1029 1165.3 973.585 1127.32 905.958 C 1126.32 904.648 1123.09 898.497 1122.1 896.707 L 1117.18 887.213 C 1116.09 885.735 1113.85 880.792 1112.92 878.867 C 1101.65 859.47 1085.27 819.147 1077.71 797.611 C 1083.75 797.161 1101.2 793.054 1108.06 791.427 C 1123.86 787.686 1143.72 784.492 1158.83 779.428 C 1139.58 810.896 1138.79 806.036 1166.49 835.638 C 1172.85 842.436 1179.87 854.932 1186.79 860.575 C 1197.05 862.433 1215.31 850.578 1225.33 846.252 C 1256.17 832.943 1286.91 815.615 1317.72 802.704 C 1321.31 800.833 1327.31 798.563 1331.21 796.942 L 1493.79 717.41 z"/>
<path transform="translate(0,0)" fill="rgb(198,160,215)" d="M 1158.83 779.428 C 1139.58 810.896 1138.79 806.036 1166.49 835.638 C 1172.85 842.436 1179.87 854.932 1186.79 860.575 C 1197.05 862.433 1215.31 850.578 1225.33 846.252 C 1256.17 832.943 1286.91 815.615 1317.72 802.704 C 1321.97 833.714 1326.84 865.312 1325.99 896.658 C 1325.93 896.946 1325.88 897.233 1325.82 897.521 C 1321.19 947.937 1318.05 999.024 1299.15 1046.69 C 1296.49 1053.38 1296.28 1061.71 1290.07 1065.7 C 1221.75 1029 1165.3 973.585 1127.32 905.958 C 1126.32 904.648 1123.09 898.497 1122.1 896.707 L 1117.18 887.213 C 1116.09 885.735 1113.85 880.792 1112.92 878.867 C 1101.65 859.47 1085.27 819.147 1077.71 797.611 C 1083.75 797.161 1101.2 793.054 1108.06 791.427 C 1123.86 787.686 1143.72 784.492 1158.83 779.428 z"/>
<path transform="translate(0,0)" fill="rgb(130,83,145)" d="M 1112.92 878.867 C 1154.36 880.704 1253.62 911.045 1280.82 940.559 C 1282.08 941.923 1283.29 943.329 1284.45 944.774 C 1237.48 925.561 1199.2 912.229 1148.02 907.963 C 1143.12 907.554 1131.09 904.968 1127.32 905.958 C 1126.32 904.648 1123.09 898.497 1122.1 896.707 L 1117.18 887.213 C 1116.09 885.735 1113.85 880.792 1112.92 878.867 z"/>
<path transform="translate(0,0)" fill="rgb(198,160,215)" d="M 1117.18 887.213 C 1139.62 886.323 1206.81 904.548 1227.13 916.082 C 1204.82 911.02 1182.13 904.676 1159.72 900.689 C 1148.53 898.698 1133.65 897.758 1122.1 896.707 L 1117.18 887.213 z"/>
<path transform="translate(0,0)" fill="rgb(114,61,120)" d="M 1331.21 796.942 C 1344.05 877.935 1350.44 959.82 1350.32 1041.82 C 1350.24 1052.04 1350.18 1080.09 1348.49 1088.95 C 1343.39 1086.39 1338.17 1086.55 1332.09 1083.75 C 1319.46 1079.41 1300.83 1073.23 1290.07 1065.7 C 1296.28 1061.71 1296.49 1053.38 1299.15 1046.69 C 1318.05 999.024 1321.19 947.937 1325.82 897.521 C 1325.88 897.233 1325.93 896.946 1325.99 896.658 C 1326.84 865.312 1321.97 833.714 1317.72 802.704 C 1321.31 800.833 1327.31 798.563 1331.21 796.942 z"/>
<path transform="translate(0,0)" fill="rgb(152,106,171)" d="M 1325.99 896.658 C 1332.5 908.149 1338.01 1070.61 1332.09 1083.75 C 1319.46 1079.41 1300.83 1073.23 1290.07 1065.7 C 1296.28 1061.71 1296.49 1053.38 1299.15 1046.69 C 1318.05 999.024 1321.19 947.937 1325.82 897.521 C 1325.88 897.233 1325.93 896.946 1325.99 896.658 z"/>
<path transform="translate(0,0)" fill="rgb(152,106,171)" d="M 1274.23 1805.46 C 1277.98 1883.72 1298.59 1938.96 1369.99 1979.41 C 1355.17 1983.15 1316.13 1988.07 1302.32 1983.41 L 1303.98 1982.83 C 1304.97 1979.29 1293.81 1971.35 1290.89 1968.58 C 1277.94 1956.3 1267.97 1943.1 1264.4 1925.29 C 1266.08 1925.26 1267.97 1924.81 1269.66 1924.5 C 1273.79 1921.07 1270.29 1911.72 1269.2 1906.86 C 1261.8 1873.88 1266.35 1851.57 1269.38 1818.98 C 1270.94 1814.56 1272.53 1809.78 1274.23 1805.46 z"/>
<path transform="translate(0,0)" fill="rgb(114,61,120)" d="M 1493.79 717.41 C 1496.41 715.348 1502.57 712.744 1505.86 711.187 C 1522.8 770.809 1537.22 843.512 1540.77 905.145 C 1541.79 926.518 1542.43 947.908 1542.68 969.305 C 1542.94 981.785 1542.82 997.379 1544.65 1009.47 L 1542.73 1011.18 C 1541.74 1005.19 1540.88 996.763 1533.24 996.853 C 1530.62 998.866 1530.79 998.136 1530.43 1002.44 C 1529.48 1013.94 1530.84 1026.99 1529.12 1038.32 C 1528.63 1031.48 1529.08 1019.69 1529.1 1012.54 C 1529.25 993.862 1529.07 975.181 1528.57 956.507 C 1525.31 867.783 1517.35 802.603 1493.79 717.41 z"/>
<path transform="translate(0,0)" fill="rgb(114,61,120)" d="M 1264.4 1925.29 C 1252.82 1891.43 1248.81 1846.01 1263.34 1812.59 C 1263.5 1816.86 1263.03 1820.31 1261.47 1824.34 C 1264.12 1825.17 1264.3 1825.47 1267 1825.17 C 1266.9 1823.59 1266.85 1822.47 1266.82 1820.84 C 1268.16 1819.53 1267.87 1819.39 1269.38 1818.98 C 1266.35 1851.57 1261.8 1873.88 1269.2 1906.86 C 1270.29 1911.72 1273.79 1921.07 1269.66 1924.5 C 1267.97 1924.81 1266.08 1925.26 1264.4 1925.29 z"/>
<path transform="translate(0,0)" fill="rgb(114,61,120)" d="M 1233.94 1966.43 C 1228.72 1959.47 1209.75 1935.42 1216.25 1926.71 C 1220.47 1928 1224.81 1935.71 1227.05 1939.6 C 1232.32 1948.72 1237.1 1955.07 1244.32 1962.78 C 1239.92 1964.01 1237.97 1964.44 1233.94 1966.43 z"/>
<path transform="translate(0,0)" fill="rgb(198,160,215)" d="M 415.919 1184.97 C 421.364 1188.69 435.17 1201.41 441.432 1206.47 C 462.075 1223.13 475.694 1229.78 499.304 1239.8 C 491.893 1298.58 515.005 1328.64 557.234 1365.59 C 555.355 1417.6 533.979 1498.69 515.699 1547.37 C 479.227 1644.48 436.361 1723.79 474.252 1830.34 C 488.631 1870.77 514.321 1901.13 553.423 1919.43 C 550.668 1922.49 544.564 1922.89 540.474 1923.22 C 490.079 1927.29 436.241 1898.31 399.015 1867.05 C 290.659 1776.06 325.452 1682.12 365.923 1568.03 C 380.938 1525.7 396.295 1477.32 405.591 1432.71 C 418.825 1369.21 422.364 1300.08 420.613 1235.23 C 420.165 1218.61 417.151 1201.34 415.919 1184.97 z"/>
<path transform="translate(0,0)" fill="rgb(152,106,171)" d="M 571.041 1377.84 C 602.276 1397.3 626.541 1410.19 660.365 1423.72 C 662.92 1424.76 669.218 1427.13 671.325 1428.35 C 713.239 1442.22 751.473 1454.52 795.265 1462.41 C 828.651 1468.42 860.524 1471.44 893.951 1475.39 L 894.956 1485.83 C 867.733 1486.83 816.869 1494.51 793.618 1507.05 C 752.463 1529.25 709.812 1574.07 674.935 1606.14 C 658.61 1621.15 636.184 1642.46 621.268 1657.97 C 619.137 1660.64 616.732 1663.5 614.737 1666.24 C 616.873 1671.22 619.022 1676.53 621.422 1681.37 C 611.977 1688.89 606.077 1695.2 597.984 1704.16 C 581.405 1725.11 558.082 1754 561.755 1782.62 C 564.846 1806.69 594.141 1843.2 610.285 1861.99 C 618.3 1869.97 642.542 1896.24 648.522 1904.97 C 642.327 1915.23 639.071 1920.02 636.102 1931.54 C 635.979 1933.57 635.947 1935.61 636.006 1937.64 C 636.348 1949.39 645.079 1957 652.913 1964.44 C 603.541 1972 552.407 1970.1 512.899 1935.68 C 531.942 1936.52 554.037 1936.23 570.933 1926.81 C 575.549 1924.23 579.74 1922.86 582.175 1917.97 C 581.99 1910.92 578.245 1911.42 571.623 1910.35 C 546.584 1906.3 525.149 1888.51 510.221 1868.81 C 489.194 1841.06 483.926 1821.32 477.411 1789.12 C 458.947 1697.86 504.309 1623.06 533.1 1539.43 C 552.378 1483.44 563.152 1437.21 571.041 1377.84 z"/>
<path transform="translate(0,0)" fill="rgb(152,106,171)" d="M 671.325 1428.35 C 713.239 1442.22 751.473 1454.52 795.265 1462.41 C 828.651 1468.42 860.524 1471.44 893.951 1475.39 L 894.956 1485.83 C 867.733 1486.83 816.869 1494.51 793.618 1507.05 C 752.463 1529.25 709.812 1574.07 674.935 1606.14 C 658.61 1621.15 636.184 1642.46 621.268 1657.97 C 619.126 1653.23 629.762 1622.56 631.872 1614.58 C 647.145 1556.82 668.574 1487.53 671.325 1428.35 z"/>
<path transform="translate(0,0)" fill="rgb(114,61,120)" d="M 660.365 1423.72 C 662.92 1424.76 669.218 1427.13 671.325 1428.35 C 668.574 1487.53 647.145 1556.82 631.872 1614.58 C 629.762 1622.56 619.126 1653.23 621.268 1657.97 C 619.137 1660.64 616.732 1663.5 614.737 1666.24 C 616.873 1671.22 619.022 1676.53 621.422 1681.37 C 611.977 1688.89 606.077 1695.2 597.984 1704.16 C 599.185 1694.09 602.458 1681.58 604.651 1671.5 C 618.83 1606.35 641.366 1543.1 652.433 1477.22 C 655.427 1459.4 657.539 1441.56 660.365 1423.72 z"/>
<path transform="translate(0,0)" fill="rgb(130,83,145)" d="M 610.285 1861.99 C 618.3 1869.97 642.542 1896.24 648.522 1904.97 C 642.327 1915.23 639.071 1920.02 636.102 1931.54 C 636.304 1909.56 616.317 1884.52 610.285 1861.99 z"/>
<path transform="translate(0,0)" fill="rgb(198,160,215)" d="M 1038.59 806.102 C 1038.5 800.198 1037.48 771.533 1039.67 768.274 C 1039.74 788.892 1041.58 880.508 1048.06 892.837 C 1044.06 901.928 1047.08 901.433 1048.87 910.861 C 1055.57 946.105 1063.94 980.986 1076.52 1014.63 C 1081.43 1027.76 1088.02 1040.68 1093.12 1053.52 C 1050.42 1047.14 1010.24 1018.93 984.897 984.856 C 983.548 983.037 982.218 981.204 980.908 979.357 C 976.079 980.4 977.445 979.425 974.298 982.577 C 972.833 986.424 973.157 988.916 973.114 993.124 C 980.093 1013.59 988.906 1033.38 999.444 1052.27 C 976.685 1052.4 954.209 1052.58 931.567 1049.91 C 914.902 1047.95 907.182 1040.64 895.624 1029.48 C 865.519 1000.41 846.968 965.911 831.894 927.441 C 824.014 935.482 824.256 941.469 823.922 952.163 C 824.44 986.678 836.047 1019.4 849.009 1050.8 C 814.754 1034.62 790.36 986.249 775.116 952.75 C 772.737 947.523 757.814 908.313 758.954 904.342 L 761.999 903.794 L 762.241 902.565 C 754.924 894.612 755.736 893.624 753.627 882.51 C 746.649 853.711 742.874 832.003 740.057 802.75 C 772.859 804.065 807.559 809.328 840.43 811.742 C 890.418 815.412 939.68 815.123 989.592 810.709 C 1005.47 809.304 1022.97 808.796 1038.59 806.102 z"/>
<path transform="translate(0,0)" fill="rgb(130,83,145)" d="M 973.114 993.124 C 964.347 982.6 953.536 956.374 946.74 943.797 C 939.904 931.144 915.026 856.03 928.521 852.007 C 932.854 856.557 939.623 886.686 942.317 895.03 C 952.218 925.699 964.91 951.457 980.908 979.357 C 976.079 980.4 977.445 979.425 974.298 982.577 C 972.833 986.424 973.157 988.916 973.114 993.124 z"/>
<path transform="translate(0,0)" fill="rgb(114,61,120)" d="M 823.922 952.163 C 822.08 943.015 815.355 909.372 822.567 902.887 C 827.006 905.506 830.323 921.758 831.894 927.441 C 824.014 935.482 824.256 941.469 823.922 952.163 z"/>
<path transform="translate(0,0)" fill="rgb(198,160,215)" d="M 876.946 984.403 C 881.725 988.321 880.707 991.563 877.747 996.255 C 875.439 994.112 875.556 994.269 874.168 991.442 C 874.125 987.8 874.815 987.331 876.946 984.403 z"/>
<path transform="translate(0,0)" fill="rgb(198,160,215)" d="M 387.138 1152.56 C 402.342 1163.49 404.079 1179.37 405.216 1196.24 C 411.008 1282.2 406.851 1371.22 387.143 1455.28 C 375.876 1503.33 357.391 1551.13 341.911 1597.98 C 336.766 1613.57 332.613 1629.83 325.842 1644.85 C 322.92 1651.25 315.242 1658.49 311.511 1664.77 C 287.276 1700.05 254.587 1730.84 239.051 1771.57 C 225.291 1807.44 229.929 1847.77 251.474 1879.58 C 265.047 1899.68 293.473 1927.35 282.627 1954.34 C 276.506 1969.57 259.312 1975.08 245.096 1980.47 C 243.161 1980.94 241.654 1981.22 239.702 1981.58 C 239.446 1981.3 239.19 1981.02 238.934 1980.74 C 243.526 1974.76 247.979 1970.29 251.375 1963.43 C 266.171 1933.54 253.05 1905.12 233.059 1882.03 C 213.593 1859.55 193.641 1829.54 191.368 1799.24 C 186.906 1739.76 230.321 1682.12 260.086 1634.28 C 275.555 1608.92 290.661 1583.35 305.4 1557.56 C 316.86 1537.2 326.074 1516.22 334.684 1494.51 C 378.128 1384.96 389.864 1269.4 387.138 1152.56 z"/>
<path transform="translate(0,0)" fill="rgb(252,245,242)" d="M 627.568 1693.53 C 647.403 1723.14 670.406 1751.06 699.805 1771.84 L 694.01 1779.47 C 688.344 1773.5 681.842 1765 674.098 1763.45 C 671.305 1764.22 671.158 1764.99 669.367 1767.33 C 683.312 1784.68 698.384 1801.16 712.442 1818.4 C 709.634 1831.16 707.723 1843.65 705.939 1856.59 C 702.973 1891.72 697.414 1925.87 695.151 1961.29 C 679.703 1959.24 648.403 1954.36 651.511 1931.9 C 652.584 1924.16 658.828 1916.62 663.466 1910.45 C 659.347 1889.38 649.329 1884.8 636.602 1869.09 C 616.945 1844.83 582.383 1810.97 576.133 1779.59 C 572.045 1759.07 601.509 1723.47 614.233 1707.88 C 618.691 1702.76 622.826 1698.4 627.568 1693.53 z"/>
<path transform="translate(0,0)" fill="rgb(242,193,185)" d="M 705.939 1856.59 C 702.973 1891.72 697.414 1925.87 695.151 1961.29 C 679.703 1959.24 648.403 1954.36 651.511 1931.9 C 652.584 1924.16 658.828 1916.62 663.466 1910.45 C 663.829 1913.38 663.565 1913.97 662.548 1916.74 C 663.955 1920.89 664.622 1924.73 665.596 1928.98 L 666.743 1929.65 C 672.805 1921.49 653.904 1871.94 705.939 1856.59 z"/>
<path transform="translate(0,0)" fill="rgb(242,193,185)" d="M 627.568 1693.53 C 647.403 1723.14 670.406 1751.06 699.805 1771.84 L 694.01 1779.47 C 688.344 1773.5 681.842 1765 674.098 1763.45 C 671.305 1764.22 671.158 1764.99 669.367 1767.33 C 664.111 1755.05 634.179 1733.99 625.87 1721.21 C 623.984 1718.31 616.888 1710.63 614.233 1707.88 C 618.691 1702.76 622.826 1698.4 627.568 1693.53 z"/>
<path transform="translate(0,0)" fill="rgb(252,245,242)" d="M 1366.61 1697.03 C 1369.25 1695.31 1370.03 1694.54 1373.18 1693.99 C 1377.48 1696.01 1376.41 1701.6 1376.5 1706.15 L 1384.96 1716.37 C 1398.02 1732.36 1425.27 1763.93 1422 1785.9 C 1417.66 1815.12 1376.18 1852.8 1357.25 1876.03 C 1348.58 1886.65 1339.59 1890.74 1333.67 1905.22 C 1338.26 1914.76 1358.29 1929.03 1348.26 1941.34 C 1346.08 1941.84 1344.21 1942.25 1342.05 1940.41 C 1321.17 1922.64 1301.42 1886.26 1295.49 1860.96 C 1291.34 1846.76 1289.95 1832.51 1290 1817.78 C 1300.42 1804.83 1315.17 1792.39 1324.11 1778.45 C 1325.12 1776.87 1325.1 1773.72 1325.05 1771.82 C 1313.47 1775.37 1310.81 1779.19 1302.79 1787.92 C 1299.72 1784.25 1296.39 1779.27 1293.57 1775.29 C 1300.3 1757.05 1314.06 1748.79 1327.94 1735.93 C 1341.4 1723.54 1354.3 1710.56 1366.61 1697.03 z"/>
<path transform="translate(0,0)" fill="rgb(242,193,185)" d="M 1366.61 1697.03 C 1369.25 1695.31 1370.03 1694.54 1373.18 1693.99 C 1377.48 1696.01 1376.41 1701.6 1376.5 1706.15 L 1384.96 1716.37 C 1376.71 1723.78 1326.18 1765.22 1325.05 1771.82 C 1313.47 1775.37 1310.81 1779.19 1302.79 1787.92 C 1299.72 1784.25 1296.39 1779.27 1293.57 1775.29 C 1300.3 1757.05 1314.06 1748.79 1327.94 1735.93 C 1341.4 1723.54 1354.3 1710.56 1366.61 1697.03 z"/>
<path transform="translate(0,0)" fill="rgb(45,13,21)" d="M 1366.61 1697.03 C 1369.25 1695.31 1370.03 1694.54 1373.18 1693.99 C 1377.48 1696.01 1376.41 1701.6 1376.5 1706.15 C 1372.98 1702.48 1370.46 1700.3 1366.61 1697.03 z"/>
<path transform="translate(0,0)" fill="rgb(242,193,185)" d="M 1295.49 1860.96 C 1314.59 1867.69 1325.25 1888.52 1333.67 1905.22 C 1338.26 1914.76 1358.29 1929.03 1348.26 1941.34 C 1346.08 1941.84 1344.21 1942.25 1342.05 1940.41 C 1321.17 1922.64 1301.42 1886.26 1295.49 1860.96 z"/>
<path transform="translate(0,0)" fill="rgb(152,106,171)" d="M 320.688 1670.46 C 307.162 1755.09 314.015 1801.19 376.444 1863.9 C 402.104 1886.83 431.197 1908.17 463.536 1921.71 C 477.232 1927.45 454.813 1959.41 448.456 1964.83 C 406.857 2000.29 351.731 2000.98 300.284 1995.19 C 317.332 1985.89 322.217 1981.76 336.915 1968.84 C 364.975 1933.81 345.79 1896.3 323.981 1865.42 C 318.649 1857.87 308.431 1832.27 306.062 1823.78 C 292.811 1776.27 296.735 1714.06 320.688 1670.46 z"/>
<path transform="translate(0,0)" fill="rgb(198,160,215)" d="M 320.688 1670.46 C 307.162 1755.09 314.015 1801.19 376.444 1863.9 C 384.796 1890.95 379.393 1918.04 366.596 1942.95 C 361.879 1952.13 348.677 1968.14 339.035 1971.27 C 337.257 1970.17 338.016 1970.93 336.915 1968.84 C 364.975 1933.81 345.79 1896.3 323.981 1865.42 C 318.649 1857.87 308.431 1832.27 306.062 1823.78 C 292.811 1776.27 296.735 1714.06 320.688 1670.46 z"/>
<path transform="translate(0,0)" fill="rgb(252,245,242)" d="M 1540.67 1109.04 C 1562.79 1109.25 1578.31 1111.11 1594.13 1128.25 C 1636.13 1173.73 1626.44 1251.56 1581.76 1291.71 C 1562.83 1308.73 1534.34 1323.36 1509.31 1324.59 C 1512.84 1307.28 1517.55 1291.22 1519.59 1273.51 C 1520.82 1262.41 1524.04 1246.78 1525.89 1235.3 C 1528.97 1215.83 1531.6 1196.29 1533.77 1176.69 C 1533.96 1171.13 1533.82 1167.65 1535.51 1162.26 C 1537.16 1145.13 1538.58 1125.91 1540.67 1109.04 z"/>
<path transform="translate(0,0)" fill="rgb(242,193,185)" d="M 1533.77 1176.69 C 1552.04 1163.31 1568.74 1177.31 1577.93 1172.04 C 1581.56 1192.35 1588.44 1206.41 1581.5 1227.75 C 1574.88 1248.1 1546.92 1281.88 1523.32 1276.98 C 1521.79 1275.65 1520.98 1274.98 1519.59 1273.51 C 1520.82 1262.41 1524.04 1246.78 1525.89 1235.3 C 1528.97 1215.83 1531.6 1196.29 1533.77 1176.69 z"/>
<path transform="translate(0,0)" fill="rgb(192,107,102)" d="M 1535.51 1162.26 C 1543.51 1165.41 1563.67 1152.68 1577.93 1172.04 C 1568.74 1177.31 1552.04 1163.31 1533.77 1176.69 C 1533.96 1171.13 1533.82 1167.65 1535.51 1162.26 z"/>
<path transform="translate(0,0)" fill="rgb(242,193,185)" d="M 1044.43 1470.47 C 1045.06 1470.72 1045.69 1470.96 1046.32 1471.2 C 1048.1 1476.95 1047.35 1485.5 1049.12 1493.07 C 1056.64 1502.57 1067.5 1500.16 1079.58 1503.34 L 1080.76 1503.67 C 1049.31 1548.18 961.079 1569.03 910.275 1551.06 C 906.522 1549.57 902.89 1547.78 899.412 1545.73 C 882.16 1535.67 872.623 1522.48 867.724 1503.4 C 897.744 1498.79 908.956 1509.16 909.212 1475.91 C 964.26 1478.08 988.974 1475.49 1044.43 1470.47 z"/>
<path transform="translate(0,0)" fill="rgb(250,221,223)" d="M 894.929 1527.26 C 898.796 1526.91 901.605 1526.15 904.82 1528.17 C 906.101 1531.46 905.695 1530.44 904.716 1534.55 C 899.572 1534.17 897.191 1533.89 894.306 1529.44 L 894.929 1527.26 z"/>
<path transform="translate(0,0)" fill="rgb(152,106,171)" d="M 1278.28 1414.82 C 1280.25 1415 1279.41 1414.61 1280.82 1415.95 C 1267.06 1466.09 1252.69 1505.9 1231.92 1553.94 C 1201.03 1519 1169.84 1508.75 1126.75 1495.66 C 1098.34 1487.66 1090.56 1490.14 1063.91 1485.66 C 1063.23 1480.26 1063.11 1474.37 1062.86 1468.9 C 1147.45 1458.15 1199.71 1448.27 1278.28 1414.82 z"/>
<path transform="translate(0,0)" fill="rgb(242,193,185)" d="M 644.216 892.113 C 659.371 836.51 678.226 786.2 705.575 735.226 C 711.253 724.641 719.118 709.299 726.233 699.972 C 725.773 714.933 723.686 731.36 723.087 746.833 C 721.407 790.198 725.672 833.589 735.764 875.797 C 727.809 876.086 719.859 876.518 711.919 877.091 L 708.536 877.963 C 709.752 880.496 710.855 882.405 711.406 885.173 C 720.823 884.209 727.834 883.891 737.316 883.731 C 738.048 887.359 738.809 891.794 739.68 895.315 C 711.72 894.19 689.175 895.171 661.915 901.928 C 657.128 903.115 643.495 906.562 640.07 904.86 L 642.735 899.677 C 643.029 896.337 643.361 895.252 644.216 892.113 z"/>
<path transform="translate(0,0)" fill="rgb(198,160,215)" d="M 644.216 892.113 C 646.868 891.816 663.669 886.711 667.534 885.616 C 682.625 881.338 693.034 879.397 708.536 877.963 C 709.752 880.496 710.855 882.405 711.406 885.173 C 720.823 884.209 727.834 883.891 737.316 883.731 C 738.048 887.359 738.809 891.794 739.68 895.315 C 711.72 894.19 689.175 895.171 661.915 901.928 C 657.128 903.115 643.495 906.562 640.07 904.86 L 642.735 899.677 C 643.029 896.337 643.361 895.252 644.216 892.113 z"/>
<path transform="translate(0,0)" fill="rgb(81,29,65)" d="M 644.216 892.113 C 646.868 891.816 663.669 886.711 667.534 885.616 C 682.625 881.338 693.034 879.397 708.536 877.963 C 709.752 880.496 710.855 882.405 711.406 885.173 C 687.018 888.047 666.389 893.375 642.735 899.677 C 643.029 896.337 643.361 895.252 644.216 892.113 z"/>
<path transform="translate(0,0)" fill="rgb(198,160,215)" d="M 574.7 936.021 C 582.93 931.791 611.205 919.667 620.347 919.152 L 621.51 920.661 C 615.697 952.09 610.762 981.171 610.259 1013.33 C 610.041 1027.28 610.997 1041.45 611.291 1055.46 C 585.492 1021.18 577.496 977.719 574.7 936.021 z"/>
<path transform="translate(0,0)" fill="rgb(242,193,185)" d="M 1054.45 780.734 C 1058.95 785.195 1069.92 819.026 1072.82 827.477 C 1078.68 844.562 1088.33 860.523 1094.31 876.3 L 1093.05 877.121 C 1081.39 877.689 1072.22 879.311 1060.82 881.259 C 1056.86 852.1 1054.3 809.505 1054.45 780.734 z"/>
<path transform="translate(0,0)" fill="rgb(242,193,185)" d="M 842.097 984.708 C 857.795 1007.26 872.403 1029.22 893.562 1047.08 C 897.241 1050.19 901.735 1054.11 905.179 1057.48 C 894.898 1053.85 883.521 1050.2 873.079 1047 C 868.855 1045.71 866.955 1046.76 863.271 1048.93 C 853.519 1027.35 845.135 1008.71 842.097 984.708 z"/>
<path transform="translate(0,0)" fill="rgb(130,83,145)" d="M 1326.22 1711.72 C 1333.73 1697.83 1347.45 1680.43 1356.64 1666.32 L 1366.36 1675.65 C 1357.55 1687.25 1340.61 1704.95 1329.52 1714.32 L 1326.22 1711.72 z"/>
<path transform="translate(0,0)" fill="rgb(198,160,215)" d="M 1076.53 886.394 C 1082.21 885.705 1092.62 885.744 1098.67 885.582 L 1105.18 896.839 C 1101.56 896.439 1097.89 896.25 1094.25 896.006 C 1087.89 895.836 1063.33 897.714 1061.43 891.387 L 1063.32 888.811 C 1067.22 886.689 1071.96 886.777 1076.53 886.394 z"/>
<path transform="translate(0,0)" fill="rgb(130,83,145)" d="M 709.969 1781.76 C 714.315 1783.27 715.245 1783.77 717.361 1787.14 C 718.116 1791.7 716.253 1796.08 714.885 1800.67 C 711.954 1796.84 705.859 1791.18 706.182 1786.68 C 706.315 1784.83 708.389 1783.4 709.969 1781.76 z"/>
<path transform="translate(0,0)" fill="rgb(114,61,120)" d="M 1316 1727.91 C 1319.75 1720.9 1321.49 1718.1 1326.22 1711.72 L 1329.52 1714.32 C 1325.53 1719.4 1320.74 1723.53 1316 1727.91 z"/>
<path transform="translate(0,0)" fill="rgb(6,6,6)" d="M 266.413 1802.59 C 267.639 1805.44 270.007 1819.05 270.745 1822.79 C 273.206 1835.27 277.972 1845.5 281.631 1857.26 L 282.209 1859.15 C 271.132 1843.79 261.703 1821.71 266.413 1802.59 z"/>
<path transform="translate(0,0)" fill="rgb(252,245,242)" d="M 294.635 142.348 C 306.189 140.264 325.225 147.324 332.251 156.162 C 349.397 177.732 344.547 168.376 365.444 167.655 C 415.204 165.937 440.26 233.271 399.006 262.813 C 397.338 264.007 391.429 265.604 390.453 268.705 C 390.125 284.631 395.407 295.604 388.548 311.711 C 380.437 330.757 367.707 334.994 350.299 342.092 C 330.408 345.119 314.624 339.404 301.767 324.419 C 299.644 321.944 295.006 316.932 292.006 316.106 C 282.753 313.968 275.131 319.79 265.368 317.871 C 226.239 310.177 207.731 266.162 232.647 233.761 C 237.98 226.825 241.72 224.604 248.997 219.636 C 248.467 216.907 247.982 214.168 247.544 211.422 C 241.865 175.074 255.912 147.473 294.635 142.348 z"/>
<path transform="translate(0,0)" fill="rgb(152,106,171)" d="M 296.734 161.328 C 322.563 161.214 330.637 181.578 333.597 203.401 C 341.782 196.306 349.384 189.429 360.465 187.161 C 369.008 185.345 377.922 187.165 385.069 192.187 C 392.994 197.821 398.276 206.446 399.691 216.067 C 401.084 224.782 398.777 233.684 393.326 240.625 C 383.879 252.887 371.929 255.161 357.891 257.033 C 372.465 275.327 383.512 295.737 360.801 315.321 C 356.656 318.896 352.039 320.438 346.989 322.374 C 320.485 325.748 307.495 307.805 304.405 283.625 C 297.51 288.612 287.636 296.394 279.433 298.289 C 271.144 300.147 262.457 298.603 255.317 294.003 C 231.915 278.836 236.862 245.828 260.348 233.942 C 267.314 230.417 271.694 229.757 279.233 228.322 C 272.944 220.173 266.124 212.794 264.379 202.293 C 260.654 179.892 275.741 164.432 296.734 161.328 z"/>
<path transform="translate(0,0)" fill="rgb(198,160,215)" d="M 294.223 174.278 C 327.444 171.377 317.222 202.468 324.269 217.356 C 326.745 219.417 326.275 219.694 330.074 219.754 C 331.98 219.784 334.237 217.982 335.471 216.583 C 342.083 209.087 348.616 203.32 358.293 200.143 C 390.561 189.548 400.058 237.073 368.45 243.603 C 361.88 244.96 355.427 245.899 348.775 246.941 C 344.698 247.579 342.018 248.925 339.673 252.454 C 340.37 255.701 347.847 260.885 350.501 263.836 C 365.763 280.805 368.219 297.901 346.93 309.831 C 341.973 310.219 337.004 310.867 332.41 308.909 C 311.931 300.181 317.42 276.528 312.608 265.326 C 311.468 264.592 310.786 263.753 309.938 264.268 C 301.628 269.317 295.245 278.016 286.433 282.848 C 281.119 285.761 278.089 286.166 272.615 287.246 C 254.981 282.663 247.79 272.539 254.576 254.4 C 260.821 237.708 290.234 243.237 295.353 232.911 C 292.444 225.005 281.553 217.816 277.719 207.275 C 271.806 191.018 277.185 180.053 294.223 174.278 z"/>
<path transform="translate(0,0)" fill="rgb(252,245,242)" d="M 312.733 223.209 C 340.376 221.174 347.499 250.101 324.895 260.662 C 313.314 262.904 311.813 261.27 302.798 253.383 C 298.225 239.911 298.935 230.538 312.733 223.209 z"/>
<path transform="translate(0,0)" fill="url(#Gradient1)" d="M 56.991 1186.04 C 73.6898 1185.5 84.1511 1186.5 98.6626 1196.41 C 102.754 1199.2 106.124 1203.62 110.511 1205.71 C 117.877 1204.81 123.751 1200.06 130.367 1198.08 C 141.711 1195.06 154.755 1198.63 164.901 1203.59 C 187.717 1214.74 195.477 1241.26 191.25 1264.88 C 189.186 1276.41 179.624 1282.06 173.766 1291 C 172.081 1293.57 178.102 1304.67 179.081 1307.42 C 189.318 1338.86 170.469 1361.33 142.879 1372.58 L 142.384 1372.33 C 108.347 1377.58 114.04 1368.56 87.3758 1357.59 C 84.7002 1357.41 79.5137 1359.06 77.2396 1360.04 C 29.4121 1380.63 -14.3557 1321.85 17.3876 1282.24 C 18.1757 1281.26 24.4049 1273.31 24.0511 1272.37 C 8.91814 1232.34 14.6259 1202.37 56.991 1186.04 z"/>
<path transform="translate(0,0)" fill="rgb(179,118,233)" d="M 60.0774 1205.28 C 88.805 1204.18 93.9392 1215.31 105.219 1238.3 C 112.582 1229.62 118.841 1222.15 130.084 1218.2 C 147.799 1211.97 166.224 1221.36 172.085 1239.19 C 174.884 1247.52 174.203 1256.63 170.196 1264.45 C 163.528 1277.51 153.188 1282.2 140.34 1286.55 C 168.268 1307.61 172.438 1336.88 138.915 1354.52 C 112.452 1361.93 100.922 1343.68 92.8278 1322.2 C 86.8818 1329.3 80.7289 1337.68 72.2903 1341.73 C 64.4462 1345.53 55.3823 1345.91 47.2498 1342.78 C 30.5086 1336.46 20.4448 1316.14 27.4253 1299.11 C 33.1873 1285.04 44.7687 1280.26 57.8069 1274.87 C 40.6589 1261.87 27.7292 1245.46 38.3645 1222.14 C 42.2341 1213.66 51.3986 1208.19 60.0774 1205.28 z"/>
<path transform="translate(0,0)" fill="rgb(198,160,215)" d="M 150.815 1317.81 C 149.834 1329.21 146.25 1339.27 133.446 1342.16 C 121.192 1344.93 110.58 1334.92 105.819 1324.58 C 102.698 1317.81 103.754 1307.27 97.4065 1302.79 C 91.1669 1303.67 84.6926 1313.9 80.6523 1319.78 C 70.6097 1334.76 48.6993 1338.24 39.6468 1320.28 C 25.292 1291.8 71.8473 1285.32 75.1236 1277.66 C 74.7107 1273.08 69.7144 1268.48 65.4287 1266.49 C 39.9676 1254.67 37.9873 1217.17 70.8361 1217.37 C 94.3338 1217.52 90.6447 1248.07 100.479 1259.08 L 103.04 1259.06 C 108.784 1255.06 112.148 1248.63 116.183 1242.82 C 125.175 1229.88 141.209 1222.33 154.922 1234.3 C 159.41 1238.15 162.024 1243.75 162.096 1249.66 C 162.388 1275.1 131.109 1273.23 121.932 1282.39 C 120.845 1288.03 141.16 1299.71 145.057 1306.29 C 147.781 1310.9 148.851 1312.79 150.815 1317.81 z"/>
<path transform="translate(0,0)" fill="rgb(250,221,223)" d="M 100.479 1259.08 L 103.04 1259.06 C 112.136 1265.19 121.259 1274.06 117.01 1286.13 C 115.186 1291.16 111.367 1295.22 106.452 1297.35 C 101.622 1299.5 96.1322 1299.6 91.2275 1297.63 C 83.0469 1294.3 76.0627 1282.63 80.4819 1273.92 C 85.4504 1264.12 90.6249 1262.03 100.479 1259.08 z"/>
<path transform="translate(0,0)" fill="rgb(252,245,242)" d="M 1948.74 700.319 C 1977.07 701.521 1997.81 714.229 2005.14 742.448 C 2009.37 758.767 2004.47 770.681 1996.36 784.345 C 1999.4 789.842 2001.21 790.827 2005.25 795.196 C 2011.44 801.882 2014.43 815.016 2015.47 824.108 C 2017.06 837.975 2010.82 850.195 2001.89 860.648 C 1992.56 871.576 1972.67 879.451 1958.14 878.237 C 1952.24 877.744 1935.61 869.437 1930.08 872.037 C 1917.43 877.988 1911.11 886.403 1895.35 887.464 C 1859.17 887.163 1837.78 862.817 1840.71 826.839 C 1840.99 823.397 1849.9 808.558 1848.49 805.743 C 1844.37 797.454 1835.34 789.835 1832.69 780.44 C 1828.66 764.676 1830.29 748.991 1838.34 735.001 C 1847.33 718.497 1875.23 705.246 1893.08 711.975 C 1914.47 720.041 1908.4 725.662 1925.57 709.093 C 1928.74 706.037 1943.44 701.713 1948.74 700.319 z"/>
<path transform="translate(0,0)" fill="rgb(152,106,171)" d="M 1948.77 720.142 C 1951.83 719.974 1954.9 719.94 1957.97 720.04 C 1965.1 720.338 1975.13 724.976 1979.31 730.715 C 1996.25 753.967 1984.52 773.282 1965.72 788.1 C 1980.44 796.338 1995.8 806.065 1995.93 825.163 C 1996.07 834.425 1992.36 843.329 1985.68 849.746 C 1979.13 855.899 1970.4 859.188 1961.42 858.883 C 1946.71 858.265 1937.66 848.932 1928.65 838.85 C 1920.54 854.2 1915.88 864.022 1897.5 867.931 C 1895.43 867.981 1893.36 867.988 1891.29 867.951 C 1862.8 867.323 1850.57 835.887 1866.2 813.923 C 1870.63 807.703 1873.88 805.018 1879.66 800.198 C 1860.67 792.539 1844.91 781.069 1849.52 757.837 C 1851.38 748.4 1857.14 740.189 1865.38 735.228 C 1873.56 730.151 1883.46 728.664 1892.76 731.117 C 1903.31 734.006 1910.95 741.653 1916.14 751.004 C 1916.89 749.584 1917.65 748.17 1918.42 746.764 C 1926.46 732.227 1932.58 724.855 1948.77 720.142 z"/>
<path transform="translate(0,0)" fill="rgb(198,160,215)" d="M 1952.73 732.113 C 1967.94 731.858 1973.71 743.415 1976.21 756.396 C 1971.09 772.509 1958.33 778.749 1944.76 788.941 C 1945.24 798.201 1965.21 800.353 1973.01 806.484 C 1991.3 820.873 1985.6 844.487 1961.65 845.798 C 1942.57 846.843 1938.99 829.222 1928.53 817.691 C 1926.97 815.945 1925.25 816.055 1923.2 816.413 C 1913.23 830.794 1922.17 845.372 1896.48 855.245 C 1879.61 856.228 1870.37 847.651 1870.63 830.481 C 1870.87 815.45 1897.94 807.369 1898.97 797.548 C 1895.85 790.909 1884 789.145 1877.06 785.299 C 1854.05 772.548 1856.32 746.232 1883.9 741.048 C 1899.59 746.682 1901.8 751.831 1912.3 764.477 C 1914.47 767.085 1916.42 769.85 1919.61 770.148 C 1929.95 764.267 1926.05 738.719 1951.53 732.398 L 1952.73 732.113 z"/>
<path transform="translate(0,0)" fill="rgb(252,245,242)" d="M 1915.15 775.026 C 1928.78 774.47 1930.59 774.264 1939.64 784.333 C 1942.61 797.985 1940.54 803.698 1929.13 812.032 C 1919.97 812.616 1911.19 812.408 1905.68 803.556 C 1902.94 799.054 1902.25 793.596 1903.78 788.554 C 1905.87 781.926 1909.14 778.064 1915.15 775.026 z"/>
<path transform="translate(0,0)" fill="rgb(252,245,242)" d="M 1956.38 1036.29 C 1992.28 1034.86 2020 1061.48 2015.4 1098.74 C 2014.98 1102.13 2007.13 1116.27 2009.41 1119.15 C 2013.56 1124.39 2022.8 1130.01 2025.58 1136.33 C 2026.99 1139.53 2028.26 1142.78 2029.38 1146.09 C 2033.73 1159.23 2032.99 1170.84 2026.53 1183.84 C 2017.6 1201.81 1998.46 1214.16 1978.07 1213.28 C 1972.73 1213.05 1957.82 1206.36 1952.58 1207.66 C 1949.23 1208.49 1938.2 1220.25 1934.85 1222.19 C 1931.76 1223.98 1923.51 1226.49 1919.99 1227.65 C 1909.98 1228.55 1898.95 1228.62 1889.59 1224.73 C 1870.82 1220.35 1853.08 1187.2 1859.03 1168.68 C 1868.77 1138.31 1855.69 1151.61 1845.07 1127.97 C 1828.61 1091.32 1858.5 1046.76 1900.99 1055.43 C 1903.78 1055.99 1915.11 1059.98 1918.47 1060.38 C 1930.06 1047 1939.46 1042.6 1956.38 1036.29 z"/>
<path transform="translate(0,0)" fill="rgb(152,106,171)" d="M 1957.96 1056.15 C 1959.23 1056.07 1960.5 1056.02 1961.77 1055.99 C 1980.57 1055.38 1996.04 1068.96 1996.15 1088.53 C 1996.23 1104.83 1987.26 1112.36 1976.74 1122.96 C 1984.24 1126.26 1994.71 1130.57 2000.92 1135.81 C 2007.51 1141.48 2011.56 1149.56 2012.16 1158.23 C 2012.89 1166.92 2010.05 1175.54 2004.29 1182.09 C 1998.14 1189.13 1989.31 1193.27 1979.96 1193.49 C 1964.8 1193.79 1955.57 1184.54 1945.83 1174.82 C 1939.26 1192.85 1935.81 1202.42 1916.66 1209.2 C 1876.01 1213.43 1863 1171.5 1893.37 1142.96 C 1885.34 1140.4 1878.16 1137.88 1871.43 1132.54 C 1856.75 1120.87 1855.61 1098.12 1867.98 1084.11 C 1874.07 1077.2 1882.83 1073.23 1892.05 1073.19 C 1907.2 1072.99 1916.68 1082.58 1926.66 1092.2 C 1931.86 1074.55 1938.7 1060.71 1957.96 1056.15 z"/>
<path transform="translate(0,0)" fill="rgb(198,160,215)" d="M 1928.33 1113.05 C 1929.72 1112.08 1933.84 1109.32 1934.24 1107.81 C 1938.58 1091.27 1942.38 1064.35 1966.01 1067.5 C 1971.92 1068.34 1977.19 1071.66 1980.5 1076.63 C 1999.73 1105.19 1961.27 1113.75 1956.46 1127.19 L 1957.29 1130.61 C 1957.7 1131.12 1958.12 1131.63 1958.54 1132.15 C 1972.56 1134.03 1983.82 1136.38 1994.61 1146.79 C 1998.01 1150 2001.64 1155.5 2001.29 1160.4 C 2000.53 1170.94 1987.49 1184.05 1976.46 1182.24 C 1962.99 1180.02 1954.03 1168.08 1946.62 1157.69 C 1945.06 1155.51 1944.22 1154.71 1941.71 1154.39 C 1934.64 1159.88 1936.02 1183.22 1924.52 1191.43 C 1914.55 1198.54 1902.83 1200.48 1893.55 1189.76 C 1873.54 1166.67 1913.32 1144.83 1913.99 1139.46 C 1910.1 1134.25 1898.65 1132.52 1892.38 1130.3 C 1883.04 1127.01 1870.18 1119.15 1870.62 1107.65 C 1871.04 1096.71 1879.84 1082.34 1892.67 1084.27 C 1909.34 1086.78 1918.86 1100.65 1928.33 1113.05 z"/>
<path transform="translate(0,0)" fill="rgb(252,245,242)" d="M 1928 1113.71 C 1940.08 1110.47 1951.65 1115.41 1956.46 1127.19 L 1957.29 1130.61 C 1954.16 1141.43 1949.79 1151.72 1936.46 1151.67 C 1931.18 1151.68 1926.12 1149.54 1922.44 1145.74 C 1918.8 1141.93 1916.93 1136.76 1917.3 1131.5 C 1917.86 1123.12 1922.29 1118.93 1928 1113.71 z"/>
<path transform="translate(0,0)" fill="rgb(252,245,242)" d="M 115.962 693.167 C 133.06 692.421 147.805 700.838 154.178 717.01 C 155.775 721.061 157.816 727.762 160.431 730.747 C 162.166 732.728 165.375 730.945 168.487 732.973 C 180.495 740.796 193.23 739.216 199.856 754.576 C 202.517 760.744 206.276 776.455 203.663 781.942 C 195.95 798.143 187.087 803.276 171.023 809.059 C 164.928 811.253 165.746 823.919 162.51 831.111 C 157.494 842.258 151.019 847.521 139.724 852.289 C 134.276 854.9 119.48 852.492 113.779 849.789 C 100.786 843.63 96.1335 832.691 91.6448 820.015 C 86.0813 818.571 80.9499 816.458 75.5726 814.879 C 53.0137 808.258 42.8101 786.383 51.9641 764.576 C 58.1434 749.855 67.8425 746.326 82.222 741.151 C 85.379 711.737 89.1136 704.553 115.962 693.167 z"/>
<path transform="translate(0,0)" fill="rgb(188,132,208)" d="M 119.401 710.982 C 139.842 711.75 142.673 735.778 143.401 751.367 C 155.925 750.235 167.029 748.681 177.939 756.728 C 186.976 763.393 188.379 774.912 180.1 782.889 C 170.82 791.831 160.694 792.929 148.514 793.353 C 150.973 812.703 151.481 826.611 131.486 835.796 C 111.837 833.817 106.764 816.724 106.673 799.664 C 94.7213 800.921 83.8175 801.964 73.5433 793.922 C 64.4541 786.808 64.2065 774.529 71.9822 766.302 C 80.5693 757.216 91.6356 757.304 103.154 756.985 C 98.6988 738.293 98.8382 719.094 119.401 710.982 z"/>
<path transform="translate(0,0)" fill="rgb(252,245,242)" d="M 121.778 760.919 C 128.82 758.909 136.169 762.939 138.26 769.957 C 140.351 776.976 136.406 784.371 129.412 786.543 C 124.816 787.97 119.807 786.817 116.297 783.523 C 112.788 780.229 111.32 775.302 112.454 770.625 C 113.589 765.947 117.149 762.24 121.778 760.919 z"/>
<path transform="translate(0,0)" fill="rgb(252,245,242)" d="M 1787.61 325.001 C 1794.24 325.761 1800.9 327.188 1806.92 331.5 C 1821.81 342.148 1805.96 358.339 1826.98 364.574 C 1829.69 365.379 1833.52 376.229 1833.76 380.214 C 1834.09 385.703 1832.23 391.099 1828.58 395.214 C 1823.4 401.051 1814.9 404.732 1807.13 405.077 C 1803.9 409.663 1797.28 419.625 1792.19 422.256 C 1789.8 423.491 1791.43 422.122 1788.77 424.076 L 1787.52 425.012 C 1767.25 425.796 1757.59 417.475 1757.01 397.117 C 1732.43 380.252 1731.71 346.916 1766.12 345.797 C 1772.55 332.27 1773.87 331.579 1787.61 325.001 z"/>
<path transform="translate(0,0)" fill="rgb(188,132,208)" d="M 1777.49 362.8 C 1778.81 354.343 1785.09 329.82 1798.35 347.811 C 1801.3 351.814 1799.41 362.409 1798.57 367.66 C 1804.67 368.331 1815.24 369.491 1817.51 375.47 C 1824.36 393.536 1799.18 390.356 1792.36 389.379 C 1792.3 394.478 1792.35 404.252 1787.9 406.691 C 1767.68 417.753 1769.94 393.275 1773.19 383.713 C 1764.41 380.924 1747.54 380.05 1754.26 365.215 C 1757.52 362.092 1757.38 362.282 1761.77 360.972 C 1769.13 360.159 1770.38 361.328 1777.49 362.8 z"/>
<path transform="translate(0,0)" fill="rgb(198,160,215)" d="M 1761.77 360.972 C 1769.13 360.159 1770.38 361.328 1777.49 362.8 C 1783.46 364.106 1788.07 363.553 1791.23 369.206 C 1786.72 368.9 1785.33 368.421 1781.38 370.186 C 1778.14 374.854 1779.23 376.953 1780.38 382.376 C 1769.95 372.407 1783.39 366.863 1761.77 360.972 z"/>
<path transform="translate(0,0)" fill="rgb(252,245,242)" d="M 1780.38 382.376 C 1779.23 376.953 1778.14 374.854 1781.38 370.186 C 1785.33 368.421 1786.72 368.9 1791.23 369.206 C 1792.44 372.832 1793.57 374.715 1792.33 378.255 C 1790.47 380.271 1789.72 381.159 1787.56 382.908 C 1785.02 382.1 1783.04 382.335 1780.38 382.376 z"/>
<path transform="translate(0,0)" fill="rgb(252,245,242)" d="M 498.912 79.8947 C 518.397 74.4184 538.631 85.7829 544.095 105.272 C 549.559 124.761 538.181 144.988 518.689 150.439 C 499.214 155.885 479.009 144.52 473.551 125.049 C 468.092 105.578 479.444 85.366 498.912 79.8947 z"/>
<path transform="translate(0,0)" fill="rgb(188,132,208)" d="M 505.971 95.7121 C 516.341 94.517 525.73 101.919 526.988 112.282 C 528.246 122.644 520.901 132.078 510.546 133.399 C 505.211 134.08 499.839 132.465 495.762 128.957 C 491.686 125.449 489.289 120.377 489.167 115.001 C 488.944 105.196 496.228 96.835 505.971 95.7121 z"/>
<path transform="translate(0,0)" fill="rgb(252,245,242)" d="M 172.927 1080.96 C 191.872 1077.12 210.491 1088.84 215.226 1107.58 C 219.96 1126.32 209.141 1145.48 190.647 1151.1 C 178.105 1154.91 164.482 1151.65 155.029 1142.56 C 145.317 1133.23 141.587 1119.28 145.344 1106.35 C 149.102 1093.41 159.727 1083.64 172.927 1080.96 z"/>
<path transform="translate(0,0)" fill="rgb(188,132,208)" d="M 174.256 1099.23 C 183.969 1096.15 194.33 1101.58 197.317 1111.33 C 200.305 1121.07 194.772 1131.38 185.003 1134.27 C 175.364 1137.13 165.225 1131.68 162.278 1122.07 C 159.331 1112.46 164.675 1102.27 174.256 1099.23 z"/>
<path transform="translate(0,0)" fill="rgb(252,245,242)" d="M 183.141 1455.93 C 194.972 1452.86 207.546 1456.13 216.379 1464.58 C 225.212 1473.03 229.046 1485.44 226.513 1497.4 C 223.9 1509.73 214.9 1519.74 202.906 1523.64 C 190.674 1527.62 177.247 1524.62 167.863 1515.83 C 158.479 1507.03 154.624 1493.83 157.803 1481.36 C 160.982 1468.9 170.69 1459.15 183.141 1455.93 z"/>
<path transform="translate(0,0)" fill="rgb(198,160,215)" d="M 187.653 1471.74 C 194.296 1470.45 201.12 1472.83 205.524 1477.96 C 209.927 1483.1 211.231 1490.21 208.938 1496.58 C 206.644 1502.94 201.108 1507.59 194.439 1508.74 C 184.281 1510.49 174.606 1503.73 172.746 1493.6 C 170.886 1483.46 177.535 1473.71 187.653 1471.74 z"/>
<path transform="translate(0,0)" fill="rgb(252,245,242)" d="M 1927.07 1386.8 C 1946.04 1382.13 1965.18 1393.82 1969.68 1412.83 C 1974.19 1431.83 1962.33 1450.87 1943.28 1455.2 C 1924.47 1459.48 1905.73 1447.81 1901.28 1429.03 C 1896.83 1410.26 1908.34 1391.42 1927.07 1386.8 z"/>
<path transform="translate(0,0)" fill="rgb(188,132,208)" d="M 1930.5 1402.54 C 1940.33 1399.92 1950.43 1405.67 1953.21 1415.46 C 1955.98 1425.24 1950.39 1435.44 1940.65 1438.36 C 1934.21 1440.3 1927.23 1438.61 1922.39 1433.95 C 1917.54 1429.29 1915.58 1422.38 1917.26 1415.87 C 1918.95 1409.37 1924 1404.27 1930.5 1402.54 z"/>
<path transform="translate(0,0)" fill="rgb(252,245,242)" d="M 1734.56 269.714 C 1752.41 267.125 1768.95 279.545 1771.45 297.402 C 1773.95 315.259 1761.44 331.741 1743.57 334.148 C 1725.83 336.538 1709.49 324.144 1707.01 306.415 C 1704.53 288.685 1716.85 272.284 1734.56 269.714 z"/>
<path transform="translate(0,0)" fill="rgb(188,132,208)" d="M 1735.83 285.271 C 1744.98 283.719 1753.65 289.87 1755.21 299.016 C 1756.77 308.161 1750.63 316.84 1741.48 318.407 C 1732.33 319.975 1723.64 313.822 1722.08 304.667 C 1720.51 295.511 1726.67 286.825 1735.83 285.271 z"/>
</svg>